<svg width="48" height="48" viewBox="0 0 48 48" fill="none" xmlns="http://www.w3.org/2000/svg">
<path d="M40.7599 17.1402L38.2999 20.8402C39.4862 23.2064 40.067 25.8299 39.9902 28.4757C39.9134 31.1215 39.1814 33.7069 37.8599 36.0002H10.1399C8.42219 33.0205 7.71045 29.5665 8.11014 26.1504C8.50983 22.7343 9.99968 19.5379 12.3588 17.0351C14.718 14.5323 17.8208 12.8563 21.2073 12.2556C24.5939 11.6549 28.0838 12.1615 31.1599 13.7002L34.8599 11.2402C31.0928 8.82467 26.6245 7.74225 22.1696 8.16612C17.7148 8.58998 13.5307 10.4956 10.2868 13.5783C7.04294 16.6609 4.92658 20.7424 4.27629 25.1699C3.626 29.5974 4.47936 34.115 6.69986 38.0002C7.04888 38.6048 7.55003 39.1075 8.15352 39.4583C8.757 39.8092 9.4418 39.996 10.1399 40.0002H37.8399C38.5447 40.003 39.2378 39.8195 39.8489 39.4683C40.46 39.1171 40.9674 38.6107 41.3199 38.0002C43.1626 34.8081 44.0874 31.1688 43.9921 27.4841C43.8968 23.7995 42.7851 20.2129 40.7799 17.1202L40.7599 17.1402Z" fill="#948CFC"/>
<path d="M21.18 30.8198C21.5515 31.1917 21.9926 31.4868 22.4782 31.6881C22.9638 31.8894 23.4843 31.993 24.01 31.993C24.5356 31.993 25.0562 31.8894 25.5417 31.6881C26.0273 31.4868 26.4685 31.1917 26.84 30.8198L38.16 13.8398L21.18 25.1598C20.8081 25.5313 20.513 25.9725 20.3117 26.4581C20.1104 26.9437 20.0068 27.4642 20.0068 27.9898C20.0068 28.5155 20.1104 29.036 20.3117 29.5216C20.513 30.0072 20.8081 30.4484 21.18 30.8198Z" fill="#948CFC"/>
</svg>
