<?xml version="1.0" encoding="UTF-8"?>
<svg xmlns="http://www.w3.org/2000/svg" xmlns:xlink="http://www.w3.org/1999/xlink" width="35px" height="28px" viewBox="0 0 35 28" version="1.1">
<g id="surface1">
<rect x="0" y="0" width="35" height="28" style="fill:rgb(14.509804%,34.117647%,83.921569%);fill-opacity:1;stroke:none;"/>
<path style=" stroke:none;fill-rule:nonzero;fill:rgb(100%,100%,100%);fill-opacity:1;" d="M 0.0117188 13.199219 L 1.691406 13.199219 L 2.070312 12.105469 L 2.917969 12.105469 L 3.296875 13.199219 L 6.601562 13.199219 L 6.601562 12.363281 L 6.898438 13.203125 L 8.613281 13.203125 L 8.90625 12.351562 L 8.90625 13.199219 L 17.121094 13.199219 L 17.121094 11.40625 L 17.277344 11.40625 C 17.390625 11.410156 17.421875 11.421875 17.421875 11.640625 L 17.421875 13.199219 L 21.671875 13.199219 L 21.671875 12.78125 C 22.011719 13 22.546875 13.199219 23.246094 13.199219 L 25.035156 13.199219 L 25.417969 12.105469 L 26.265625 12.105469 L 26.640625 13.199219 L 30.085938 13.199219 L 30.085938 12.160156 L 30.605469 13.199219 L 33.367188 13.199219 L 33.367188 6.339844 L 30.636719 6.339844 L 30.636719 7.148438 L 30.253906 6.339844 L 27.449219 6.339844 L 27.449219 7.148438 L 27.097656 6.339844 L 23.3125 6.339844 C 22.679688 6.339844 22.121094 6.445312 21.671875 6.738281 L 21.671875 6.339844 L 19.058594 6.339844 L 19.058594 6.738281 C 18.773438 6.433594 18.382812 6.339844 17.949219 6.339844 L 8.402344 6.339844 L 7.761719 8.109375 L 7.101562 6.339844 L 4.097656 6.339844 L 4.097656 7.148438 L 3.765625 6.339844 L 1.203125 6.339844 L 0.0117188 9.601562 Z M 10.617188 12.210938 L 9.609375 12.210938 L 9.605469 8.355469 L 8.179688 12.210938 L 7.316406 12.210938 L 5.886719 8.351562 L 5.886719 12.210938 L 3.886719 12.210938 L 3.507812 11.113281 L 1.460938 11.113281 L 1.078125 12.210938 L 0.0117188 12.210938 L 1.773438 7.289062 L 3.234375 7.289062 L 4.90625 11.949219 L 4.90625 7.289062 L 6.511719 7.289062 L 7.796875 10.628906 L 8.980469 7.289062 L 10.617188 7.289062 Z M 3.171875 10.089844 L 2.5 8.128906 L 1.828125 10.089844 Z M 14.628906 12.210938 L 11.34375 12.210938 L 11.34375 7.289062 L 14.628906 7.289062 L 14.628906 8.3125 L 12.328125 8.3125 L 12.328125 9.199219 L 14.574219 9.199219 L 14.574219 10.210938 L 12.328125 10.210938 L 12.328125 11.191406 L 14.628906 11.191406 Z M 19.257812 8.613281 C 19.257812 9.398438 18.820312 9.804688 18.5625 9.925781 C 18.777344 10.023438 18.964844 10.195312 19.050781 10.339844 C 19.1875 10.585938 19.214844 10.804688 19.214844 11.242188 L 19.214844 12.210938 L 18.222656 12.210938 L 18.21875 11.589844 C 18.21875 11.292969 18.242188 10.867188 18.0625 10.628906 C 17.917969 10.457031 17.699219 10.417969 17.347656 10.417969 L 16.289062 10.417969 L 16.289062 12.210938 L 15.308594 12.210938 L 15.308594 7.289062 L 17.570312 7.289062 C 18.070312 7.289062 18.441406 7.304688 18.757812 7.527344 C 19.070312 7.746094 19.257812 8.066406 19.257812 8.613281 Z M 18.015625 9.34375 C 17.878906 9.445312 17.71875 9.445312 17.527344 9.445312 L 16.332031 9.445312 L 16.332031 8.355469 L 17.542969 8.355469 C 17.714844 8.355469 17.894531 8.363281 18.011719 8.441406 C 18.136719 8.515625 18.214844 8.667969 18.214844 8.878906 C 18.214844 9.09375 18.140625 9.265625 18.015625 9.34375 Z M 20.832031 12.210938 L 19.832031 12.210938 L 19.832031 7.289062 L 20.832031 7.289062 Z M 32.480469 12.210938 L 31.085938 12.210938 L 29.222656 8.515625 L 29.222656 12.210938 L 27.222656 12.210938 L 26.839844 11.113281 L 24.796875 11.113281 L 24.425781 12.210938 L 23.273438 12.210938 C 22.796875 12.210938 22.191406 12.082031 21.847656 11.664062 C 21.503906 11.246094 21.324219 10.679688 21.324219 9.789062 C 21.324219 9.058594 21.429688 8.390625 21.851562 7.863281 C 22.171875 7.472656 22.667969 7.289062 23.347656 7.289062 L 24.296875 7.289062 L 24.296875 8.34375 L 23.367188 8.34375 C 23.007812 8.34375 22.804688 8.40625 22.609375 8.636719 C 22.441406 8.84375 22.328125 9.234375 22.328125 9.75 C 22.328125 10.277344 22.414062 10.65625 22.597656 10.90625 C 22.75 11.097656 23.023438 11.160156 23.28125 11.160156 L 23.722656 11.160156 L 25.109375 7.289062 L 26.582031 7.289062 L 28.25 11.941406 L 28.25 7.289062 L 29.746094 7.289062 L 31.472656 10.714844 L 31.472656 7.289062 L 32.480469 7.289062 Z M 26.503906 10.089844 L 25.824219 8.128906 L 25.148438 10.089844 Z M 34.988281 20.0625 C 34.746094 20.480469 34.28125 20.691406 33.652344 20.691406 L 31.753906 20.691406 L 31.753906 19.636719 L 33.644531 19.636719 C 33.832031 19.636719 33.964844 19.609375 34.042969 19.515625 C 34.117188 19.433594 34.160156 19.316406 34.160156 19.195312 C 34.160156 19.050781 34.109375 18.9375 34.039062 18.871094 C 33.96875 18.792969 33.863281 18.761719 33.691406 18.761719 C 32.769531 18.722656 31.617188 18.792969 31.617188 17.238281 C 31.617188 16.523438 31.996094 15.773438 33.027344 15.773438 L 34.984375 15.773438 L 34.984375 14.792969 L 33.167969 14.792969 C 32.617188 14.792969 32.21875 14.953125 31.9375 15.195312 L 31.9375 14.792969 L 29.246094 14.792969 C 28.8125 14.792969 28.308594 14.921875 28.070312 15.195312 L 28.070312 14.792969 L 23.261719 14.792969 L 23.261719 15.195312 C 22.878906 14.867188 22.234375 14.792969 21.9375 14.792969 L 18.765625 14.792969 L 18.765625 15.195312 C 18.464844 14.84375 17.789062 14.792969 17.378906 14.792969 L 13.832031 14.792969 L 13.019531 15.84375 L 12.257812 14.792969 L 6.960938 14.792969 L 6.960938 21.660156 L 12.160156 21.660156 L 12.996094 20.589844 L 13.785156 21.660156 L 16.992188 21.664062 L 16.992188 20.046875 L 17.304688 20.046875 C 17.730469 20.054688 18.230469 20.035156 18.675781 19.804688 L 18.675781 21.660156 L 21.320312 21.660156 L 21.320312 19.871094 L 21.445312 19.871094 C 21.609375 19.871094 21.625 19.878906 21.625 20.070312 L 21.625 21.660156 L 29.65625 21.660156 C 30.167969 21.660156 30.699219 21.503906 30.996094 21.21875 L 30.996094 21.660156 L 33.542969 21.660156 C 34.074219 21.660156 34.59375 21.570312 34.984375 21.34375 L 34.984375 20.0625 Z M 19.058594 17.421875 C 19.058594 18.789062 18.207031 19.070312 17.347656 19.070312 L 16.121094 19.070312 L 16.121094 20.722656 L 14.210938 20.722656 L 13 19.09375 L 11.738281 20.722656 L 7.84375 20.722656 L 7.84375 15.800781 L 11.800781 15.800781 L 13.011719 17.414062 L 14.261719 15.800781 L 17.402344 15.800781 C 18.183594 15.800781 19.058594 16.058594 19.058594 17.421875 Z M 11.242188 19.6875 L 8.824219 19.6875 L 8.824219 18.707031 L 10.984375 18.707031 L 10.984375 17.703125 L 8.824219 17.703125 L 8.824219 16.808594 L 11.289062 16.808594 L 12.363281 18.242188 Z M 15.136719 20.25 L 13.628906 18.246094 L 15.136719 16.304688 Z M 17.371094 18.0625 L 16.097656 18.0625 L 16.097656 16.808594 L 17.382812 16.808594 C 17.738281 16.808594 17.984375 16.984375 17.984375 17.414062 C 17.984375 17.839844 17.746094 18.0625 17.371094 18.0625 Z M 24.027344 15.800781 L 27.308594 15.800781 L 27.308594 16.820312 L 25.007812 16.820312 L 25.007812 17.714844 L 27.253906 17.714844 L 27.253906 18.71875 L 25.007812 18.71875 L 25.007812 19.695312 L 27.308594 19.703125 L 27.308594 20.722656 L 24.027344 20.722656 Z M 22.765625 18.4375 C 22.984375 18.53125 23.164062 18.707031 23.246094 18.847656 C 23.386719 19.089844 23.40625 19.3125 23.410156 19.746094 L 23.410156 20.722656 L 22.421875 20.722656 L 22.421875 20.105469 C 22.421875 19.808594 22.445312 19.371094 22.265625 19.144531 C 22.121094 18.96875 21.902344 18.925781 21.542969 18.925781 L 20.492188 18.925781 L 20.492188 20.722656 L 19.503906 20.722656 L 19.503906 15.800781 L 21.773438 15.800781 C 22.273438 15.800781 22.632812 15.828125 22.957031 16.035156 C 23.265625 16.257812 23.460938 16.566406 23.460938 17.125 C 23.460938 17.910156 23.023438 18.3125 22.765625 18.4375 Z M 22.210938 17.8125 C 22.078125 17.90625 21.914062 17.914062 21.722656 17.914062 L 20.53125 17.914062 L 20.53125 16.808594 L 21.742188 16.808594 C 21.914062 16.808594 22.089844 16.816406 22.210938 16.898438 C 22.335938 16.980469 22.414062 17.132812 22.414062 17.339844 C 22.414062 17.550781 22.335938 17.722656 22.210938 17.8125 Z M 31.085938 18.128906 C 31.277344 18.363281 31.378906 18.664062 31.378906 19.167969 C 31.378906 20.226562 30.828125 20.722656 29.835938 20.722656 L 27.921875 20.722656 L 27.921875 19.667969 L 29.828125 19.667969 C 30.015625 19.667969 30.148438 19.636719 30.230469 19.546875 C 30.296875 19.46875 30.347656 19.359375 30.347656 19.222656 C 30.347656 19.082031 30.292969 18.96875 30.226562 18.898438 C 30.152344 18.824219 30.046875 18.789062 29.875 18.789062 C 28.957031 18.753906 27.804688 18.824219 27.804688 17.265625 C 27.804688 16.554688 28.179688 15.800781 29.210938 15.800781 L 31.183594 15.800781 L 31.183594 16.847656 L 29.378906 16.847656 C 29.199219 16.847656 29.082031 16.855469 28.984375 16.9375 C 28.875 17.019531 28.835938 17.136719 28.835938 17.292969 C 28.835938 17.476562 28.929688 17.605469 29.050781 17.660156 C 29.15625 17.703125 29.265625 17.714844 29.433594 17.714844 L 29.964844 17.730469 C 30.496094 17.746094 30.863281 17.855469 31.085938 18.128906 Z M 34.988281 16.808594 L 33.195312 16.808594 C 33.015625 16.808594 32.898438 16.816406 32.796875 16.898438 C 32.695312 16.976562 32.65625 17.097656 32.65625 17.253906 C 32.65625 17.4375 32.742188 17.566406 32.871094 17.621094 C 32.972656 17.664062 33.085938 17.675781 33.25 17.675781 L 33.78125 17.691406 C 34.320312 17.707031 34.679688 17.820312 34.898438 18.089844 C 34.9375 18.125 34.960938 18.167969 34.988281 18.210938 Z M 34.988281 16.808594 "/>
</g>
</svg>
