<svg width="11" height="23" viewBox="0 0 11 23" fill="none" xmlns="http://www.w3.org/2000/svg">
<path d="M9.5 5.75015V16.3301C9.5 18.4201 7.97 20.2801 5.89 20.4801C3.5 20.7101 1.5 18.8401 1.5 16.5001V4.14015C1.5 2.83015 2.44 1.64015 3.74 1.51015C5.24 1.36015 6.5 2.53015 6.5 4.00015V14.5001C6.5 15.0501 6.05 15.5001 5.5 15.5001C4.95 15.5001 4.5 15.0501 4.5 14.5001V5.75015C4.5 5.34015 4.16 5.00015 3.75 5.00015C3.34 5.00015 3 5.34015 3 5.75015V14.3601C3 15.6701 3.94 16.8601 5.24 16.9901C6.74 17.1401 8 15.9701 8 14.5001V4.17015C8 2.08015 6.47 0.220146 4.39 0.020146C2.01 -0.209854 0 1.66015 0 4.00015V16.2701C0 19.1401 2.1 21.7101 4.96 21.9801C8.25 22.2801 11 19.7201 11 16.5001V5.75015C11 5.34015 10.66 5.00015 10.25 5.00015C9.84 5.00015 9.5 5.34015 9.5 5.75015Z" fill="#948CFC"/>
</svg>
