<svg width="18" height="18" viewBox="0 0 18 18" fill="none" xmlns="http://www.w3.org/2000/svg">
<path d="M7.79 13.2902C8.18 13.6802 8.81 13.6802 9.2 13.2902L12.79 9.70018C13.18 9.31018 13.18 8.68018 12.79 8.29018L9.2 4.70018C8.81 4.31018 8.18 4.31018 7.79 4.70018C7.4 5.09018 7.4 5.72018 7.79 6.11018L9.67 8.00018H1C0.45 8.00018 0 8.45018 0 9.00018C0 9.55018 0.45 10.0002 1 10.0002H9.67L7.79 11.8802C7.4 12.2702 7.41 12.9102 7.79 13.2902ZM16 0.000183105H2C0.89 0.000183105 0 0.900183 0 2.00018V5.00018C0 5.55018 0.45 6.00018 1 6.00018C1.55 6.00018 2 5.55018 2 5.00018V3.00018C2 2.45018 2.45 2.00018 3 2.00018H15C15.55 2.00018 16 2.45018 16 3.00018V15.0002C16 15.5502 15.55 16.0002 15 16.0002H3C2.45 16.0002 2 15.5502 2 15.0002V13.0002C2 12.4502 1.55 12.0002 1 12.0002C0.45 12.0002 0 12.4502 0 13.0002V16.0002C0 17.1002 0.9 18.0002 2 18.0002H16C17.1 18.0002 18 17.1002 18 16.0002V2.00018C18 0.900183 17.1 0.000183105 16 0.000183105Z" fill="#221F40"/>
</svg>
