<svg width="24" height="24" viewBox="0 0 24 24" fill="none" xmlns="http://www.w3.org/2000/svg">
<path d="M20.4402 7H21.0002C21.2654 7 21.5198 6.89464 21.7073 6.70711C21.8949 6.51957 22.0002 6.26522 22.0002 6C22.0002 5.73478 21.8949 5.48043 21.7073 5.29289C21.5198 5.10536 21.2654 5 21.0002 5H18.4102C16.3002 5 16.8902 3 13.0002 3V2C13.0002 1.73478 12.8949 1.48043 12.7073 1.29289C12.5198 1.10536 12.2654 1 12.0002 1C11.735 1 11.4806 1.10536 11.2931 1.29289C11.1056 1.48043 11.0002 1.73478 11.0002 2V3C7.38022 3 7.57022 5 5.66022 5H3.00022C2.735 5 2.48065 5.10536 2.29311 5.29289C2.10558 5.48043 2.00022 5.73478 2.00022 6C2.00022 6.26522 2.10558 6.51957 2.29311 6.70711C2.48065 6.89464 2.735 7 3.00022 7H3.56022C0.65022 14.76 1.00022 13.42 1.00022 15C1.00022 16.0609 1.42165 17.0783 2.17179 17.8284C2.92194 18.5786 3.93935 19 5.00022 19C6.06109 19 7.0785 18.5786 7.82865 17.8284C8.57879 17.0783 9.00022 16.0609 9.00022 15C9.00022 13.42 9.36022 14.78 6.41022 6.92C8.69022 6.52 8.71022 5 10.4102 5H11.0002V21H8.00022C7.735 21 7.48065 21.1054 7.29311 21.2929C7.10558 21.4804 7.00022 21.7348 7.00022 22C7.00022 22.2652 7.10558 22.5196 7.29311 22.7071C7.48065 22.8946 7.735 23 8.00022 23H16.0002C16.2654 23 16.5198 22.8946 16.7073 22.7071C16.8949 22.5196 17.0002 22.2652 17.0002 22C17.0002 21.7348 16.8949 21.4804 16.7073 21.2929C16.5198 21.1054 16.2654 21 16.0002 21H13.0002V5H13.5902C15.4002 5 15.2602 6.48 17.5902 6.92C14.6102 14.85 15.0002 13.42 15.0002 15C15.0002 16.0609 15.4216 17.0783 16.1718 17.8284C16.9219 18.5786 17.9394 19 19.0002 19C20.0611 19 21.0785 18.5786 21.8286 17.8284C22.5788 17.0783 23.0002 16.0609 23.0002 15C23.0002 13.42 23.3602 14.77 20.4402 7ZM5.00022 17C4.46979 17 3.96108 16.7893 3.58601 16.4142C3.21093 16.0391 3.00022 15.5304 3.00022 15H7.00022C7.00022 15.5304 6.78951 16.0391 6.41443 16.4142C6.03936 16.7893 5.53065 17 5.00022 17ZM3.44022 13L5.00022 8.85L6.56022 13H3.44022ZM19.0002 8.85L20.5602 13H17.4402L19.0002 8.85ZM19.0002 17C18.4698 17 17.9611 16.7893 17.586 16.4142C17.2109 16.0391 17.0002 15.5304 17.0002 15H21.0002C21.0002 15.5304 20.7895 16.0391 20.4144 16.4142C20.0394 16.7893 19.5307 17 19.0002 17Z" fill="#221F40"/>
</svg>
