<svg width="32" height="32" viewBox="0 0 32 32" fill="none" xmlns="http://www.w3.org/2000/svg">
<path d="M11.4169 4.6998C12.6002 2.86647 14.6669 1.66647 17.0002 1.66647C20.6835 1.66647 23.6669 4.6498 23.6669 8.33314C23.6669 10.6665 22.4669 12.7331 20.6335 13.9165L11.4169 4.6998ZM30.3335 23.6165C30.3002 21.7831 29.2835 20.0998 27.6502 19.2498C26.7502 18.7831 25.7669 18.3498 24.7002 17.9831L30.3335 23.6165ZM31.1502 29.1498L2.8502 0.849805C2.2002 0.199805 1.1502 0.199805 0.500195 0.849805C-0.149805 1.4998 -0.149805 2.5498 0.500195 3.1998L14.1335 16.8331C11.1002 17.2165 8.4502 18.1665 6.3002 19.2665C4.66686 20.1331 3.66686 21.8498 3.66686 23.6998V28.3331H25.6169L28.7835 31.4998C29.4335 32.1498 30.4835 32.1498 31.1335 31.4998C31.8002 30.8498 31.8002 29.7998 31.1502 29.1498Z" fill="#FF6A00"/>
</svg>
