<svg width="38" height="30" viewBox="0 0 38 30" fill="none" xmlns="http://www.w3.org/2000/svg">
<path d="M33.9998 0H3.99984C2.1665 0 0.666504 1.5 0.666504 3.33333V26.6667C0.666504 28.5 2.1665 30 3.99984 30H33.9998C35.8332 30 37.3332 28.5 37.3332 26.6667V3.33333C37.3332 1.5 35.8332 0 33.9998 0ZM33.9998 25C33.9998 25.9167 33.2498 26.6667 32.3332 26.6667H5.6665C4.74984 26.6667 3.99984 25.9167 3.99984 25V5C3.99984 4.08333 4.74984 3.33333 5.6665 3.33333H32.3332C33.2498 3.33333 33.9998 4.08333 33.9998 5V25ZM24.4832 9.5C23.8332 8.85 22.7832 8.85 22.1332 9.5L18.9998 12.65L15.8498 9.5C15.1998 8.85 14.1498 8.85 13.4998 9.5C12.8498 10.15 12.8498 11.2 13.4998 11.85L16.6498 15L13.4998 18.15C12.8498 18.8 12.8498 19.85 13.4998 20.5C14.1498 21.15 15.1998 21.15 15.8498 20.5L18.9998 17.35L22.1498 20.5C22.7998 21.15 23.8498 21.15 24.4998 20.5C25.1498 19.85 25.1498 18.8 24.4998 18.15L21.3498 15L24.4998 11.85C25.1332 11.2167 25.1332 10.15 24.4832 9.5Z" fill="#FF3A4F"/>
</svg>
