<svg width="16" height="9" viewBox="0 0 16 9" fill="none" xmlns="http://www.w3.org/2000/svg">
<path d="M11.5334 0.199987C11.2734 -0.0600132 10.8534 -0.0600132 10.5934 0.199987L6.83342 3.95999L7.77342 4.89999L11.5334 1.13332C11.7868 0.879987 11.7868 0.45332 11.5334 0.199987ZM14.3601 0.19332L7.77342 6.77999L5.45342 4.46665C5.19342 4.20665 4.77342 4.20665 4.51342 4.46665C4.25342 4.72665 4.25342 5.14665 4.51342 5.40665L7.30009 8.19332C7.56009 8.45332 7.98009 8.45332 8.24009 8.19332L15.3001 1.13999C15.5601 0.879987 15.5601 0.459987 15.3001 0.199987H15.2934C15.0401 -0.0666798 14.6201 -0.06668 14.3601 0.19332ZM0.746758 5.41332L3.53342 8.19999C3.79342 8.45999 4.21342 8.45999 4.47342 8.19999L4.94009 7.73332L1.68676 4.46665C1.42676 4.20665 1.00676 4.20665 0.746758 4.46665C0.486758 4.72665 0.486758 5.15332 0.746758 5.41332Z" fill="#2ECC71"/>
</svg>
