<svg width="32" height="32" viewBox="0 0 32 32" fill="none" xmlns="http://www.w3.org/2000/svg">
<path d="M6.66667 6.66668H9.33333V8.00001C9.33333 9.46668 10.5333 10.6667 12 10.6667H20C21.4667 10.6667 22.6667 9.46668 22.6667 8.00001V6.66668H25.3333V13.3333H28V6.66668C28 5.20001 26.8 4.00001 25.3333 4.00001H19.76C19.2 2.45334 17.7333 1.33334 16 1.33334C14.2667 1.33334 12.8 2.45334 12.24 4.00001H6.66667C5.2 4.00001 4 5.20001 4 6.66668V25.3333C4 26.8 5.2 28 6.66667 28H14.6667V25.3333H6.66667V6.66668ZM16 4.00001C16.7333 4.00001 17.3333 4.60001 17.3333 5.33334C17.3333 6.06668 16.7333 6.66668 16 6.66668C15.2667 6.66668 14.6667 6.06668 14.6667 5.33334C14.6667 4.60001 15.2667 4.00001 16 4.00001Z" fill="white"/>
<path d="M29 16.3333C28.4533 15.7867 27.5467 15.7867 27 16.3333L20.68 22.6667L17.6667 19.6667C17.12 19.12 16.2267 19.12 15.6667 19.6667C15.12 20.2133 15.12 21.12 15.6667 21.6667L19.7333 25.72C20.2533 26.24 21.0933 26.24 21.6133 25.72L28.9867 18.3333C29.5467 17.7867 29.5467 16.88 29 16.3333Z" fill="white"/>
</svg>
