<svg width="48" height="48" viewBox="0 0 48 48" fill="none" xmlns="http://www.w3.org/2000/svg">
<path d="M38 6H29.64C28.8 3.68 26.6 2 24 2C21.4 2 19.2 3.68 18.36 6H10C7.8 6 6 7.8 6 10V38C6 40.2 7.8 42 10 42H38C40.2 42 42 40.2 42 38V10C42 7.8 40.2 6 38 6ZM24 5.5C24.44 5.5 24.82 5.7 25.1 6C25.34 6.26 25.5 6.62 25.5 7C25.5 7.82 24.82 8.5 24 8.5C23.18 8.5 22.5 7.82 22.5 7C22.5 6.62 22.66 6.26 22.9 6C23.18 5.7 23.56 5.5 24 5.5ZM38 38H10V10H38V38ZM24 12C20.7 12 18 14.7 18 18C18 21.3 20.7 24 24 24C27.3 24 30 21.3 30 18C30 14.7 27.3 12 24 12ZM24 20C22.9 20 22 19.1 22 18C22 16.9 22.9 16 24 16C25.1 16 26 16.9 26 18C26 19.1 25.1 20 24 20ZM12 32.94V36H36V32.94C36 27.94 28.06 25.78 24 25.78C19.94 25.78 12 27.92 12 32.94ZM16.62 32C18 30.88 21.38 29.76 24 29.76C26.62 29.76 30.02 30.88 31.38 32H16.62Z" fill="#948CFC"/>
</svg>
