<svg width="14" height="18" viewBox="0 0 14 18" fill="none" xmlns="http://www.w3.org/2000/svg">
<path d="M1 16.0001C1 17.1001 1.9 18.0001 3 18.0001H11C12.1 18.0001 13 17.1001 13 16.0001V6.00006C13 4.90006 12.1 4.00006 11 4.00006H3C1.9 4.00006 1 4.90006 1 6.00006V16.0001ZM4 6.00006H10C10.55 6.00006 11 6.45006 11 7.00006V15.0001C11 15.5501 10.55 16.0001 10 16.0001H4C3.45 16.0001 3 15.5501 3 15.0001V7.00006C3 6.45006 3.45 6.00006 4 6.00006ZM10.5 1.00006L9.79 0.290061C9.61 0.110061 9.35 6.10352e-05 9.09 6.10352e-05H4.91C4.65 6.10352e-05 4.39 0.110061 4.21 0.290061L3.5 1.00006H1C0.45 1.00006 0 1.45006 0 2.00006C0 2.55006 0.45 3.00006 1 3.00006H13C13.55 3.00006 14 2.55006 14 2.00006C14 1.45006 13.55 1.00006 13 1.00006H10.5Z" fill="#221F40"/>
</svg>
