<?xml version="1.0" encoding="UTF-8"?>
<svg xmlns="http://www.w3.org/2000/svg" xmlns:xlink="http://www.w3.org/1999/xlink" width="35px" height="28px" viewBox="0 0 35 28" version="1.1">
<g id="surface1">
<rect x="0" y="0" width="35" height="28" style="fill:rgb(0%,47.45098%,74.509804%);fill-opacity:1;stroke:none;"/>
<path style=" stroke:none;fill-rule:nonzero;fill:rgb(100%,100%,100%);fill-opacity:1;" d="M 26.921875 14.082031 C 26.921875 8.515625 23.195312 4.664062 19.117188 4.667969 L 15.605469 4.667969 C 11.476562 4.664062 8.078125 8.515625 8.078125 14.082031 C 8.078125 19.171875 11.476562 23.355469 15.605469 23.332031 L 19.117188 23.332031 C 23.195312 23.355469 26.921875 19.171875 26.921875 14.082031 Z M 26.921875 14.082031 "/>
<path style=" stroke:none;fill-rule:nonzero;fill:rgb(0%,47.45098%,74.509804%);fill-opacity:1;" d="M 15.628906 5.457031 C 11.855469 5.457031 8.800781 9.28125 8.796875 14 C 8.800781 18.71875 11.855469 22.542969 15.628906 22.542969 C 19.402344 22.542969 22.457031 18.71875 22.460938 14 C 22.457031 9.28125 19.402344 5.457031 15.628906 5.457031 Z M 15.628906 5.457031 "/>
<path style=" stroke:none;fill-rule:nonzero;fill:rgb(100%,100%,100%);fill-opacity:1;" d="M 11.3125 13.976562 C 11.3125 11.671875 12.464844 9.703125 14.089844 8.921875 L 14.089844 19.03125 C 12.464844 18.25 11.3125 16.285156 11.3125 13.976562 Z M 17.1875 19.03125 L 17.1875 8.921875 C 18.8125 9.703125 19.96875 11.671875 19.96875 13.976562 C 19.96875 16.285156 18.8125 18.25 17.1875 19.03125 Z M 17.1875 19.03125 "/>
</g>
</svg>
