<?xml version="1.0" encoding="UTF-8"?>
<svg xmlns="http://www.w3.org/2000/svg" xmlns:xlink="http://www.w3.org/1999/xlink" width="35px" height="28px" viewBox="0 0 35 28" version="1.1">
<g id="surface1">
<path style=" stroke:none;fill-rule:evenodd;fill:rgb(30.196078%,30.196078%,30.196078%);fill-opacity:1;" d="M 2.46875 0 C 0 0 0 0 0 0 C 0 0 0 0 0 28.054688 L 30.066406 28.054688 C 33.894531 28.054688 35 26.675781 35 24.976562 L 35 0 C 0 0 33.894531 0 32.53125 0 Z M 2.46875 0 "/>
<path style=" stroke:none;fill-rule:evenodd;fill:rgb(100%,100%,100%);fill-opacity:1;" d="M 14.679688 9.066406 C 15.078125 9.066406 15.410156 9.164062 15.8125 9.40625 L 15.8125 10.679688 C 15.429688 10.242188 15.097656 10.054688 14.65625 10.054688 C 13.792969 10.054688 13.113281 10.898438 13.113281 11.964844 C 13.113281 13.085938 13.773438 13.878906 14.699219 13.878906 C 15.117188 13.878906 15.445312 13.703125 15.8125 13.269531 L 15.8125 14.546875 C 15.394531 14.777344 15.054688 14.867188 14.65625 14.867188 C 13.253906 14.867188 12.164062 13.601562 12.164062 11.972656 C 12.164062 10.355469 13.285156 9.066406 14.679688 9.066406 Z M 10.320312 9.101562 C 10.839844 9.101562 11.3125 9.308594 11.710938 9.714844 L 11.226562 10.457031 C 10.988281 10.140625 10.761719 10.007812 10.484375 10.007812 C 10.089844 10.007812 9.796875 10.273438 9.796875 10.625 C 9.796875 10.925781 9.960938 11.082031 10.515625 11.324219 C 11.5625 11.773438 11.875 12.171875 11.875 13.054688 C 11.875 14.128906 11.203125 14.878906 10.242188 14.878906 C 9.542969 14.878906 9.03125 14.554688 8.609375 13.820312 L 9.203125 13.148438 C 9.414062 13.628906 9.769531 13.886719 10.207031 13.886719 C 10.621094 13.886719 10.925781 13.554688 10.925781 13.105469 C 10.925781 12.871094 10.832031 12.671875 10.648438 12.53125 C 10.554688 12.464844 10.371094 12.363281 10.011719 12.214844 C 9.144531 11.847656 8.847656 11.457031 8.847656 10.691406 C 8.847656 9.785156 9.484375 9.101562 10.320312 9.101562 Z M 20.855469 9.199219 L 21.863281 9.199219 L 23.121094 12.925781 L 24.398438 9.199219 L 25.398438 9.199219 L 23.355469 14.890625 L 22.859375 14.890625 Z M 3.023438 9.207031 L 4.378906 9.207031 C 5.871094 9.207031 6.914062 10.347656 6.914062 11.984375 C 6.914062 12.804688 6.597656 13.59375 6.058594 14.117188 C 5.601562 14.558594 5.085938 14.757812 4.371094 14.757812 L 3.023438 14.757812 Z M 7.339844 9.207031 L 8.261719 9.207031 L 8.261719 14.757812 L 7.339844 14.757812 Z M 25.8125 9.207031 L 28.429688 9.207031 L 28.429688 10.148438 L 26.734375 10.148438 L 26.734375 11.378906 L 28.367188 11.378906 L 28.367188 12.320312 L 26.734375 12.320312 L 26.734375 13.820312 L 28.429688 13.820312 L 28.429688 14.757812 L 25.8125 14.757812 Z M 29.039062 9.207031 L 30.40625 9.207031 C 31.46875 9.207031 32.078125 9.804688 32.078125 10.84375 C 32.078125 11.695312 31.695312 12.253906 31 12.417969 L 32.488281 14.757812 L 31.355469 14.757812 L 30.078125 12.527344 L 29.957031 12.527344 L 29.957031 14.757812 L 29.039062 14.757812 Z M 29.957031 10.082031 L 29.957031 11.761719 L 30.226562 11.761719 C 30.816406 11.761719 31.128906 11.460938 31.128906 10.902344 C 31.128906 10.363281 30.816406 10.082031 30.242188 10.082031 Z M 3.945312 10.148438 L 3.945312 13.820312 L 4.191406 13.820312 C 4.789062 13.820312 5.164062 13.683594 5.453125 13.378906 C 5.773438 13.042969 5.964844 12.511719 5.964844 11.976562 C 5.964844 11.445312 5.773438 10.929688 5.453125 10.597656 C 5.148438 10.273438 4.789062 10.148438 4.191406 10.148438 Z M 3.945312 10.148438 "/>
<path style=" stroke:none;fill-rule:evenodd;fill:rgb(95.686275%,44.705882%,8.627451%);fill-opacity:1;" d="M 18.628906 9.027344 C 20.015625 9.027344 21.140625 10.347656 21.140625 11.980469 C 21.140625 13.613281 20.015625 14.933594 18.628906 14.933594 C 17.238281 14.933594 16.113281 13.613281 16.113281 11.980469 C 16.113281 10.347656 17.238281 9.027344 18.628906 9.027344 Z M 35 16.148438 C 33.832031 17.175781 25.078125 24.511719 9.925781 28.054688 L 32.53125 28.054688 C 33.894531 28.054688 35 28.054688 35 28.054688 L 35 0 Z M 35 16.148438 "/>
</g>
</svg>
