<svg width="32" height="32" viewBox="0 0 32 32" fill="none" xmlns="http://www.w3.org/2000/svg">
<path d="M28.547 15.4401L16.547 3.44008C16.067 2.96008 15.4003 2.66675 14.667 2.66675H5.33366C3.86699 2.66675 2.66699 3.86675 2.66699 5.33341V14.6667C2.66699 15.4001 2.96033 16.0667 3.45366 16.5601L15.4537 28.5601C15.9337 29.0401 16.6003 29.3334 17.3337 29.3334C18.067 29.3334 18.7337 29.0401 19.2137 28.5467L28.547 19.2134C29.0403 18.7334 29.3337 18.0667 29.3337 17.3334C29.3337 16.6001 29.027 15.9201 28.547 15.4401ZM17.3337 26.6801L5.33366 14.6667V5.33341H14.667V5.32008L26.667 17.3201L17.3337 26.6801Z" fill="#948CFC"/>
<path d="M8.66699 10.6667C9.77156 10.6667 10.667 9.77132 10.667 8.66675C10.667 7.56218 9.77156 6.66675 8.66699 6.66675C7.56242 6.66675 6.66699 7.56218 6.66699 8.66675C6.66699 9.77132 7.56242 10.6667 8.66699 10.6667Z" fill="#948CFC"/>
</svg>
