<svg width="34" height="34" viewBox="0 0 34 34" fill="none" xmlns="http://www.w3.org/2000/svg">
<path d="M32.4832 6.81652L15.8165 23.4832C15.1665 24.1332 14.1165 24.1332 13.4665 23.4832L8.74988 18.7665C8.09988 18.1165 8.09988 17.0665 8.74988 16.4165C9.39988 15.7665 10.4499 15.7665 11.0999 16.4165L14.6332 19.9499L30.1165 4.46652C30.7665 3.81652 31.8165 3.81652 32.4665 4.46652C33.1332 5.11652 33.1332 6.16652 32.4832 6.81652ZM23.2832 1.56652C20.4665 0.416516 17.2665 0.0165164 13.9332 0.616516C7.14988 1.83318 1.73321 7.29985 0.583214 14.0832C-1.31679 25.3332 8.04988 34.9665 19.2332 33.5165C25.8332 32.6665 31.3665 27.7499 33.0999 21.3332C33.7665 18.8832 33.8332 16.5165 33.4499 14.2999C33.2332 12.9665 31.5832 12.4499 30.6165 13.3998C30.2332 13.7832 30.0665 14.3499 30.1665 14.8832C30.5332 17.0998 30.3665 19.4665 29.2999 21.9832C27.3665 26.4999 23.1665 29.8165 18.2832 30.2665C9.78321 31.0498 2.73321 23.8499 3.78321 15.2999C4.49988 9.39985 9.24988 4.59985 15.1332 3.78318C18.0165 3.38318 20.7499 3.93318 23.0832 5.13318C23.7332 5.46652 24.5165 5.34985 25.0332 4.83318C25.8332 4.03318 25.6332 2.68318 24.6332 2.16652C24.1832 1.96652 23.7332 1.74985 23.2832 1.56652Z" fill="#2ECC71"/>
</svg>
