<?xml version="1.0" encoding="UTF-8"?>
<svg xmlns="http://www.w3.org/2000/svg" xmlns:xlink="http://www.w3.org/1999/xlink" width="35px" height="28px" viewBox="0 0 35 28" version="1.1">
<defs>
<linearGradient id="linear0" gradientUnits="userSpaceOnUse" x1="83.977" y1="645.5" x2="84.977" y2="645.5" gradientTransform="matrix(5.962115,0,0,-18.08912,-479.5,11690.56)">
<stop offset="0" style="stop-color:rgb(0%,48.235294%,25.098039%);stop-opacity:1;"/>
<stop offset="1" style="stop-color:rgb(33.333333%,70.196078%,18.823529%);stop-opacity:1;"/>
</linearGradient>
<linearGradient id="linear1" gradientUnits="userSpaceOnUse" x1="83.984" y1="645.5" x2="84.979" y2="645.5" gradientTransform="matrix(5.987244,0,0,-18.08912,-494.980769,11690.56)">
<stop offset="0" style="stop-color:rgb(11.372549%,16.078431%,43.921569%);stop-opacity:1;"/>
<stop offset="1" style="stop-color:rgb(0%,42.745098%,72.941176%);stop-opacity:1;"/>
</linearGradient>
<linearGradient id="linear2" gradientUnits="userSpaceOnUse" x1="83.978" y1="645.5" x2="84.977" y2="645.5" gradientTransform="matrix(5.966154,0,0,-18.08968,-486.5,11691.12)">
<stop offset="0" style="stop-color:rgb(43.137255%,16.862745%,18.431373%);stop-opacity:1;"/>
<stop offset="1" style="stop-color:rgb(89.019608%,0.392157%,21.960784%);stop-opacity:1;"/>
</linearGradient>
</defs>
<g id="surface1">
<rect x="0" y="0" width="35" height="28" style="fill:rgb(5.490196%,29.803922%,58.823529%);fill-opacity:1;stroke:none;"/>
<path style=" stroke:none;fill-rule:nonzero;fill:rgb(100%,100%,100%);fill-opacity:1;" d="M 28.371094 20.230469 C 28.371094 22.5625 26.855469 24.453125 24.988281 24.453125 L 6.628906 24.453125 L 6.628906 7.769531 C 6.628906 5.4375 8.144531 3.550781 10.011719 3.550781 L 28.371094 3.550781 Z M 28.371094 20.230469 "/>
<path style=" stroke:none;fill-rule:nonzero;fill:url(#linear0);" d="M 22.382812 14.367188 C 22.910156 14.378906 23.4375 14.335938 23.957031 14.386719 C 24.488281 14.511719 24.613281 15.511719 24.144531 15.839844 C 23.824219 16.054688 23.445312 15.917969 23.097656 15.957031 L 22.386719 15.957031 Z M 24.261719 12.566406 C 24.378906 13.078125 23.980469 13.539062 23.585938 13.46875 L 22.382812 13.46875 C 22.394531 12.984375 22.367188 12.460938 22.398438 12 C 22.878906 12.019531 23.363281 11.96875 23.84375 12.027344 C 24.046875 12.09375 24.21875 12.304688 24.261719 12.566406 Z M 27.152344 4.957031 C 27.175781 5.9375 27.15625 6.96875 27.164062 7.96875 C 27.160156 12.03125 27.164062 16.097656 27.160156 20.164062 C 27.140625 21.6875 26.058594 23.011719 24.84375 23.042969 C 23.632812 23.046875 22.417969 23.042969 21.203125 23.042969 L 21.203125 16.898438 C 22.527344 16.890625 23.847656 16.914062 25.171875 16.886719 C 25.785156 16.835938 26.457031 16.332031 26.484375 15.488281 C 26.558594 14.644531 25.917969 14.058594 25.3125 13.964844 C 25.078125 13.960938 25.085938 13.882812 25.3125 13.847656 C 25.890625 13.691406 26.34375 12.945312 26.171875 12.195312 C 26.027344 11.410156 25.332031 11.105469 24.75 11.105469 C 23.570312 11.09375 22.386719 11.105469 21.203125 11.101562 C 21.210938 9.953125 21.1875 8.804688 21.214844 7.660156 C 21.308594 6.164062 22.417969 4.929688 23.613281 4.957031 Z M 27.152344 4.957031 "/>
<path style=" stroke:none;fill-rule:nonzero;fill:url(#linear1);" d="M 7.839844 7.8125 C 7.871094 6.292969 8.957031 4.980469 10.167969 4.957031 C 11.378906 4.953125 12.585938 4.957031 13.796875 4.957031 C 13.792969 10.046875 13.800781 15.136719 13.789062 20.226562 C 13.746094 21.726562 12.667969 23.015625 11.472656 23.042969 C 10.261719 23.046875 9.050781 23.042969 7.835938 23.042969 L 7.835938 16.691406 C 9.015625 17.039062 10.25 17.1875 11.449219 16.957031 C 12.167969 16.8125 12.953125 16.371094 13.195312 15.441406 C 13.375 14.648438 13.273438 13.8125 13.300781 12.996094 L 13.300781 11.101562 L 11.222656 11.101562 C 11.210938 12.355469 11.242188 13.609375 11.207031 14.859375 C 11.152344 15.628906 10.539062 16.117188 9.960938 16.09375 C 9.238281 16.101562 7.808594 15.441406 7.808594 15.441406 C 7.804688 13.09375 7.832031 10.152344 7.839844 7.816406 Z M 7.839844 7.8125 "/>
<path style=" stroke:none;fill-rule:nonzero;fill:url(#linear2);" d="M 14.570312 11.867188 C 14.460938 11.894531 14.546875 11.402344 14.519531 11.214844 C 14.527344 10.027344 14.503906 8.84375 14.535156 7.660156 C 14.628906 6.15625 15.746094 4.921875 16.945312 4.957031 L 20.480469 4.957031 C 20.476562 10.046875 20.484375 15.136719 20.472656 20.226562 C 20.425781 21.726562 19.351562 23.015625 18.15625 23.042969 C 16.945312 23.046875 15.730469 23.042969 14.519531 23.042969 L 14.519531 16.082031 C 15.347656 16.929688 16.472656 17.0625 17.503906 17.066406 C 18.28125 17.066406 19.054688 16.914062 19.808594 16.691406 L 19.808594 15.417969 C 18.957031 15.945312 17.957031 16.28125 17.015625 15.976562 C 16.355469 15.773438 15.878906 14.980469 15.890625 14.132812 C 15.8125 13.253906 16.226562 12.320312 16.921875 12.058594 C 17.78125 11.722656 18.722656 11.980469 19.527344 12.417969 C 19.703125 12.53125 19.875 12.671875 19.808594 12.3125 L 19.808594 11.308594 C 18.457031 10.90625 17.019531 10.761719 15.664062 11.195312 C 15.273438 11.335938 14.890625 11.542969 14.570312 11.867188 Z M 14.570312 11.867188 "/>
</g>
</svg>
