<svg width="24" height="24" viewBox="0 0 24 24" fill="none" xmlns="http://www.w3.org/2000/svg">
<path d="M5.00003 13.1801V15.9901C5.00003 16.7201 5.40003 17.4001 6.04003 17.7501L11.04 20.4801C11.64 20.8101 12.36 20.8101 12.96 20.4801L17.96 17.7501C18.6 17.4001 19 16.7201 19 15.9901V13.1801L12.96 16.4801C12.36 16.8101 11.64 16.8101 11.04 16.4801L5.00003 13.1801ZM11.04 3.52006L2.61003 8.12006C1.92003 8.50006 1.92003 9.50006 2.61003 9.88006L11.04 14.4801C11.64 14.8101 12.36 14.8101 12.96 14.4801L21 10.0901V16.0001C21 16.5501 21.45 17.0001 22 17.0001C22.55 17.0001 23 16.5501 23 16.0001V9.59006C23 9.22006 22.8 8.89006 22.48 8.71006L12.96 3.52006C12.36 3.20006 11.64 3.20006 11.04 3.52006Z" fill="#948CFC"/>
</svg>
