<svg width="32" height="32" viewBox="0 0 32 32" fill="none" xmlns="http://www.w3.org/2000/svg">
<path d="M13.7334 10.2669C13.2134 10.7869 13.2134 11.6136 13.7334 12.1336L16.2667 14.6669H4.00002C3.26669 14.6669 2.66669 15.2669 2.66669 16.0002C2.66669 16.7336 3.26669 17.3336 4.00002 17.3336H16.2667L13.7334 19.8669C13.2134 20.3869 13.2134 21.2136 13.7334 21.7336C14.2534 22.2536 15.08 22.2536 15.6 21.7336L20.3867 16.9469C20.9067 16.4269 20.9067 15.5869 20.3867 15.0669L15.6 10.2669C15.08 9.74691 14.2534 9.74691 13.7334 10.2669ZM26.6667 25.3336H17.3334C16.6 25.3336 16 25.9336 16 26.6669C16 27.4002 16.6 28.0002 17.3334 28.0002H26.6667C28.1334 28.0002 29.3334 26.8002 29.3334 25.3336V6.66691C29.3334 5.20024 28.1334 4.00024 26.6667 4.00024H17.3334C16.6 4.00024 16 4.60024 16 5.33358C16 6.06691 16.6 6.66691 17.3334 6.66691H26.6667V25.3336Z" fill="#948CFC"/>
</svg>
