<svg width="242" height="56" viewBox="0 0 242 56" fill="none" xmlns="http://www.w3.org/2000/svg">
<path fill-rule="evenodd" clip-rule="evenodd" d="M33.3096 44.8199L25.8473 31.7942C20.8239 31.8223 15.8005 31.8501 10.777 31.878L6.43285 39.3634L21.5031 39.2796L28.9655 52.3053L33.3096 44.8199Z" fill="#A486FE"/>
<path fill-rule="evenodd" clip-rule="evenodd" d="M41.9145 44.7721L33.3097 44.8199L41.5174 30.6773L34.0552 17.6516L18.9848 17.7353L10.7771 31.878L6.51617 24.4404L14.724 10.2976L38.3994 10.1658L50.1223 30.6292L41.9145 44.7721Z" fill="#A486FE"/>
<path d="M70.6604 38.7485C72.5071 38.7485 73.9364 38.4339 74.9483 37.8048C75.9602 37.1504 76.4662 36.2193 76.4662 35.0113C76.4662 34.1305 76.1879 33.4132 75.6313 32.8595C75.0748 32.3058 74.3538 31.8906 73.4684 31.6137C72.583 31.3369 71.609 31.0978 70.5465 30.8965C69.484 30.6701 68.4088 30.4058 67.3211 30.1037C66.2586 29.7766 65.2846 29.3613 64.3991 28.858C63.5138 28.3546 62.7928 27.5996 62.2362 26.593C61.6796 25.5863 61.4014 24.3531 61.4014 22.8934C61.4014 20.6787 62.2741 18.8038 64.0197 17.2686C65.7905 15.7334 68.1306 14.9658 71.0398 14.9658C74.1008 14.9658 76.4788 15.7963 78.1738 17.4574C79.894 19.0932 80.7794 21.2198 80.83 23.8372H76.3144C76.2903 22.453 75.8222 21.3205 74.9103 20.4396C73.9996 19.5336 72.7094 19.0806 71.0398 19.0806C69.446 19.0806 68.1938 19.4078 67.2831 20.0621C66.3977 20.6913 65.955 21.5973 65.955 22.7801C65.955 23.5603 66.2332 24.2147 66.7898 24.7432C67.3464 25.2465 68.0673 25.6366 68.9527 25.9134C69.8635 26.165 70.8501 26.4041 71.9126 26.6307C73.0004 26.832 74.0755 27.1089 75.138 27.4612C76.2259 27.7884 77.2125 28.2288 78.0978 28.7825C79.0086 29.3109 79.7422 30.0911 80.2988 31.123C80.8554 32.1297 81.1336 33.3629 81.1336 34.8225C81.1336 37.2637 80.1597 39.2142 78.2117 40.6738C76.2638 42.1335 73.6708 42.8634 70.4327 42.8634C67.1187 42.8634 64.6268 41.9951 62.9572 40.2586C61.2876 38.5221 60.4148 36.4206 60.3389 33.9543H64.8925C64.9937 35.4391 65.5376 36.6094 66.5241 37.465C67.5108 38.3207 68.8895 38.7485 70.6604 38.7485Z" fill="#0B1728"/>
<path d="M94.7102 38.3339V42.2222C94.1537 42.373 93.3694 42.4485 92.3575 42.4485C88.5122 42.4485 86.5896 40.5232 86.5896 36.6726V26.329H83.5918V22.7428H86.5896V17.6465H91.1052V22.7428H94.786V26.329H91.1052V36.2196C91.1052 37.7548 91.8389 38.5224 93.3062 38.5224L94.7102 38.3339Z" fill="#0B1728"/>
<path d="M110.435 33.1234L105.198 33.9162C102.744 34.2937 101.517 35.2248 101.517 36.7097C101.517 38.421 102.681 39.2767 105.008 39.2767C106.754 39.2767 108.095 38.8111 109.031 37.88C109.967 36.9488 110.435 35.7785 110.435 34.3692V33.1234ZM104.098 42.7875C101.77 42.7875 100.037 42.2464 98.8989 41.1642C97.7606 40.0821 97.1914 38.6475 97.1914 36.8607C97.1914 33.438 99.7085 31.3743 104.743 30.6697L110.435 29.8769V29.5749C110.435 27.184 109.031 25.9886 106.223 25.9886C103.769 25.9886 102.377 26.9575 102.049 28.8954H97.6467C97.8491 26.9827 98.646 25.4098 100.037 24.1766C101.454 22.9182 103.554 22.2891 106.337 22.2891C109.145 22.2891 111.257 22.9308 112.674 24.2143C114.115 25.4978 114.836 27.2973 114.836 29.6126V38.6349C114.836 40.2205 115.026 41.4537 115.406 42.3345H111.118C111.094 42.3345 111.056 42.2464 111.004 42.0701C110.98 41.8688 110.942 41.5542 110.89 41.1264C110.865 40.6985 110.853 40.2455 110.853 39.7674C109.512 41.7807 107.26 42.7874 104.098 42.7874L104.098 42.7875Z" fill="#0B1728"/>
<path d="M117.991 32.5572C117.991 29.663 118.915 27.2344 120.761 25.2713C122.608 23.2832 124.961 22.2891 127.819 22.2891C130.526 22.2891 132.677 23.0567 134.27 24.5918C135.889 26.1018 136.851 27.8509 137.154 29.8391H132.525C132.246 28.757 131.677 27.8887 130.817 27.2344C129.982 26.58 128.97 26.2528 127.781 26.2528C126.188 26.2528 124.91 26.8443 123.949 28.0271C122.987 29.1848 122.507 30.6948 122.507 32.5572C122.507 34.4195 122.987 35.9295 123.949 37.0872C124.91 38.2449 126.188 38.8237 127.781 38.8237C128.97 38.8237 129.982 38.4966 130.817 37.8422C131.677 37.1879 132.246 36.3196 132.525 35.2374H137.154C136.851 37.2256 135.889 38.9873 134.27 40.5225C132.677 42.0325 130.526 42.7875 127.819 42.7875C124.961 42.7875 122.608 41.806 120.761 39.843C118.915 37.8548 117.991 35.4262 117.991 32.5572Z" fill="#0B1728"/>
<path d="M153.279 22.7428H158.971L151.344 31.0101L159.54 42.3352H154.152L148.346 33.9547L144.893 37.6542V42.3352H140.377V14.0225H144.893V32.2937L153.279 22.7428Z" fill="#0B1728"/>
<path d="M172.294 42.335H162.617V15.5322H172.142C175.127 15.5322 177.34 16.1614 178.782 17.4197C180.224 18.6781 180.945 20.402 180.945 22.5916C180.945 24.0512 180.553 25.3347 179.769 26.4421C178.985 27.5242 177.91 28.2793 176.544 28.7071C178.087 29.1098 179.314 29.8773 180.224 31.0099C181.16 32.1424 181.628 33.5014 181.628 35.0869C181.628 37.4778 180.806 39.2898 179.162 40.5229C177.543 41.7309 175.253 42.335 172.294 42.335ZM172.521 29.6131H164.476V40.5607H172.483C174.76 40.5607 176.543 40.1203 177.834 39.2394C179.124 38.3586 179.769 36.9744 179.769 35.0869C179.769 33.2246 179.124 31.853 177.834 30.9721C176.543 30.0661 174.773 29.6131 172.521 29.6131ZM172.294 17.3065H164.477V27.8388H172.294C176.822 27.8388 179.086 26.0897 179.086 22.5916C179.086 19.0682 176.822 17.3065 172.294 17.3065Z" fill="#0B1728"/>
<path d="M189.119 17.4201C188.84 17.6969 188.486 17.8353 188.056 17.8353C187.626 17.8353 187.272 17.7095 186.994 17.458C186.715 17.1811 186.576 16.8288 186.576 16.401C186.576 15.9731 186.715 15.6208 186.994 15.344C187.272 15.0671 187.626 14.9287 188.056 14.9287C188.486 14.9287 188.84 15.0671 189.119 15.344C189.397 15.6208 189.536 15.9731 189.536 16.401C189.536 16.8036 189.397 17.1434 189.119 17.4202V17.4201ZM187.145 42.3353V23.3091H188.929V42.3353H187.145Z" fill="#0B1728"/>
<path d="M202.89 40.561V42.222C202.485 42.3478 201.866 42.4107 201.031 42.4107C199.564 42.4107 198.425 41.9954 197.616 41.1649C196.806 40.3344 196.401 39.0887 196.401 37.4277V24.9323H192.379V23.309H196.401V17.6465H198.185V23.309H203.004V24.9323H198.185V37.3522C198.185 39.6172 199.146 40.7497 201.069 40.7497L202.89 40.561Z" fill="#0B1728"/>
<path d="M223.468 33.3123H206.886C206.987 35.5522 207.708 37.4145 209.049 38.8994C210.415 40.3842 212.198 41.1266 214.399 41.1266C216.069 41.1266 217.498 40.6988 218.687 39.8431C219.901 38.9623 220.749 37.8172 221.23 36.4078H223.165C222.558 38.2953 221.495 39.8305 219.977 41.0134C218.459 42.1962 216.6 42.7877 214.399 42.7877C211.465 42.7877 209.175 41.8187 207.531 39.8809C205.887 37.943 205.064 35.5899 205.064 32.8216C205.064 30.1035 205.925 27.763 207.645 25.8C209.365 23.837 211.616 22.8555 214.399 22.8555C217.157 22.8555 219.358 23.7741 221.002 25.6112C222.672 27.4484 223.506 29.7386 223.506 32.4818L223.468 33.3123ZM214.399 24.5543C212.35 24.5543 210.655 25.2338 209.314 26.5928C207.974 27.9266 207.189 29.6254 206.962 31.689H221.685C221.508 29.5499 220.761 27.8259 219.446 26.5173C218.156 25.2086 216.474 24.5543 214.399 24.5543Z" fill="#0B1728"/>
<path d="M234.6 42.7877C232.197 42.7877 230.325 42.1837 228.984 40.9756C227.643 39.7676 226.91 38.2576 226.783 36.4456H228.567C228.668 37.8549 229.262 38.9874 230.35 39.8431C231.463 40.6988 232.88 41.1266 234.6 41.1266C236.346 41.1266 237.712 40.7869 238.698 40.1074C239.685 39.4027 240.178 38.4841 240.178 37.3516C240.178 36.2694 239.761 35.4515 238.926 34.8978C238.091 34.319 237.079 33.9289 235.89 33.7276C234.701 33.5011 233.512 33.262 232.323 33.0103C231.134 32.7588 230.122 32.2428 229.288 31.4625C228.453 30.6824 228.035 29.6002 228.035 28.216C228.035 26.7564 228.668 25.498 229.933 24.441C231.198 23.384 232.88 22.8555 234.98 22.8555C237.079 22.8555 238.736 23.4217 239.951 24.5543C241.165 25.6616 241.835 27.0584 241.962 28.7445H240.178C240.052 27.5114 239.546 26.5047 238.661 25.7245C237.775 24.9192 236.548 24.5165 234.98 24.5165C233.361 24.5165 232.096 24.8688 231.185 25.5735C230.274 26.253 229.819 27.1213 229.819 28.1782C229.819 29.2604 230.236 30.0784 231.071 30.632C231.906 31.1857 232.918 31.5632 234.107 31.7646C235.296 31.9659 236.485 32.1924 237.674 32.4441C238.888 32.6959 239.913 33.2244 240.748 34.0296C241.582 34.8098 242 35.9171 242 37.3516C242 38.9371 241.317 40.2458 239.951 41.2776C238.585 42.2843 236.801 42.7877 234.6 42.7877Z" fill="#0B1728"/>
</svg>
