<svg width="26" height="14" viewBox="0 0 35 28" fill="none" xmlns="http://www.w3.org/2000/svg">
<path d="M34.3105 27.6205V27.6924H34.3758C34.3881 27.6926 34.4001 27.6895 34.4108 27.6833C34.4151 27.6802 34.4185 27.676 34.4208 27.6712C34.4231 27.6664 34.4242 27.6611 34.4239 27.6557C34.4241 27.6505 34.4231 27.6453 34.4208 27.6406C34.4185 27.6359 34.415 27.6319 34.4108 27.6289C34.4003 27.6224 34.3881 27.6192 34.3758 27.6197H34.3105V27.6205ZM34.3765 27.5695C34.4045 27.5678 34.4322 27.576 34.4549 27.5929C34.464 27.6006 34.4712 27.6103 34.476 27.6214C34.4808 27.6325 34.483 27.6445 34.4824 27.6566C34.4828 27.667 34.481 27.6774 34.4772 27.6871C34.4734 27.6967 34.4677 27.7054 34.4603 27.7126C34.4428 27.7282 34.4208 27.7377 34.3977 27.7394L34.4852 27.842H34.4178L34.3373 27.7401H34.3112V27.842H34.2549V27.5697H34.3774L34.3765 27.5695ZM34.359 27.9359C34.3886 27.9362 34.4178 27.9301 34.4449 27.9179C34.471 27.9063 34.4948 27.8898 34.5149 27.8691C34.5351 27.8485 34.5512 27.8241 34.5623 27.7972C34.5853 27.7401 34.5853 27.676 34.5623 27.619C34.551 27.5922 34.5349 27.5678 34.5149 27.547C34.4948 27.5264 34.471 27.5098 34.4449 27.4983C34.4177 27.4868 34.3885 27.481 34.359 27.4814C34.329 27.4811 34.2993 27.4868 34.2715 27.4983C34.2448 27.5096 34.2205 27.5262 34.1999 27.547C34.169 27.5797 34.148 27.621 34.1397 27.6658C34.1314 27.7106 34.1361 27.7569 34.1532 27.799C34.1639 27.826 34.1798 27.8505 34.1999 27.8709C34.2205 27.8918 34.2448 27.9083 34.2715 27.9197C34.2991 27.9319 34.3289 27.938 34.359 27.9377V27.9359ZM34.359 27.4159C34.4359 27.4158 34.5098 27.4468 34.5646 27.5022C34.5911 27.5288 34.6121 27.5606 34.6266 27.5956C34.6415 27.6316 34.6492 27.6703 34.6492 27.7094C34.6492 27.7486 34.6415 27.7873 34.6266 27.8233C34.6118 27.8581 34.5908 27.8898 34.5646 27.9166C34.5378 27.9431 34.5065 27.9645 34.4724 27.9796C34.4365 27.9953 34.398 28.0033 34.359 28.003C34.3196 28.0033 34.2805 27.9954 34.2442 27.9796C34.2097 27.9648 34.1781 27.9434 34.1513 27.9166C34.1251 27.8888 34.1044 27.8561 34.0902 27.8202C34.0752 27.7842 34.0675 27.7455 34.0675 27.7064C34.0675 27.6673 34.0752 27.6285 34.0902 27.5926C34.1046 27.5575 34.1257 27.5258 34.1521 27.4992C34.1787 27.4719 34.2103 27.4505 34.2451 27.4362C34.2814 27.4205 34.3205 27.4125 34.3599 27.4128L34.359 27.4159ZM7.563 26.3644C7.563 25.8453 7.89375 25.4188 8.43433 25.4188C8.95093 25.4188 9.29953 25.8269 9.29953 26.3644C9.29953 26.9019 8.95093 27.31 8.43433 27.31C7.89375 27.31 7.563 26.8836 7.563 26.3644ZM9.8884 26.3644V24.887H9.26382V25.2469C9.06572 24.981 8.76525 24.8142 8.35663 24.8142C7.55163 24.8142 6.91988 25.4634 6.91988 26.3651C6.91988 27.2669 7.55128 27.9161 8.35663 27.9161C8.76508 27.9161 9.06572 27.7491 9.26382 27.4833V27.842H9.8877V26.3644H9.8884ZM30.992 26.3644C30.992 25.8453 31.3228 25.4188 31.8635 25.4188C32.3806 25.4188 32.7287 25.8269 32.7287 26.3644C32.7287 26.9019 32.3806 27.31 31.8635 27.31C31.3229 27.31 30.992 26.8836 30.992 26.3644ZM33.3181 26.3644V23.7012H32.693V25.2469C32.4949 24.981 32.1944 24.8142 31.7858 24.8142C30.9808 24.8142 30.349 25.4634 30.349 26.3651C30.349 27.2669 30.9804 27.9161 31.7858 27.9161C32.1944 27.9161 32.4949 27.7491 32.693 27.4833V27.842H33.3181V26.3644ZM17.6402 25.3884C18.0427 25.3884 18.3012 25.6479 18.3672 26.1047H16.8769C16.9435 25.6783 17.1954 25.3884 17.6404 25.3884H17.6402ZM17.6528 24.8125C16.811 24.8125 16.2222 25.4424 16.2222 26.3635C16.2222 27.3027 16.8347 27.9145 17.6946 27.9145C18.1272 27.9145 18.5234 27.8035 18.872 27.5006L18.566 27.0246C18.3252 27.2226 18.0186 27.3336 17.7303 27.3336C17.3278 27.3336 16.9614 27.142 16.8713 26.6102H19.004C19.0101 26.5303 19.0164 26.4497 19.0164 26.3633C19.0101 25.4425 18.4564 24.8124 17.6525 24.8124L17.6528 24.8125ZM25.1932 26.3633C25.1932 25.8442 25.524 25.4177 26.0645 25.4177C26.5811 25.4177 26.9297 25.8258 26.9297 26.3633C26.9297 26.9008 26.5811 27.309 26.0645 27.309C25.524 27.309 25.193 26.8825 25.193 26.3633H25.1932ZM27.5184 26.3633V24.887H26.8942V25.2469C26.6954 24.981 26.3956 24.8142 25.987 24.8142C25.182 24.8142 24.5503 25.4634 24.5503 26.3651C24.5503 27.2669 25.1816 27.9161 25.987 27.9161C26.3956 27.9161 26.6954 27.7491 26.8942 27.4833V27.842H27.5186V26.3644L27.5184 26.3633ZM21.6661 26.3633C21.6661 27.2593 22.2726 27.9143 23.1984 27.9143C23.631 27.9143 23.9192 27.8153 24.2309 27.5622L23.9309 27.043C23.6964 27.2163 23.4502 27.309 23.1784 27.309C22.6798 27.3027 22.3132 26.932 22.3132 26.3633C22.3132 25.7947 22.6798 25.4242 23.1784 25.4177C23.4495 25.4177 23.6957 25.5104 23.9309 25.6837L24.2309 25.1645C23.9187 24.9113 23.6305 24.8124 23.1984 24.8124C22.2726 24.8124 21.6661 25.4672 21.6661 26.3633ZM29.7178 24.8124C29.3575 24.8124 29.1228 24.9856 28.9606 25.2451V24.887H28.3416V27.8404H28.9669V26.1848C28.9669 25.6961 29.1711 25.4245 29.5794 25.4245C29.7131 25.4226 29.8458 25.4478 29.97 25.4989L30.1625 24.8935C30.0243 24.8375 29.844 24.8129 29.7175 24.8129L29.7178 24.8124ZM12.9763 25.1219C12.6758 24.9182 12.2618 24.8129 11.805 24.8129C11.0773 24.8129 10.6089 25.1715 10.6089 25.7583C10.6089 26.2399 10.9577 26.537 11.5999 26.6297L11.8949 26.6728C12.2374 26.7223 12.3991 26.815 12.3991 26.9818C12.3991 27.2102 12.1716 27.3405 11.7444 27.3405C11.3118 27.3405 10.9997 27.1983 10.7891 27.0315L10.4957 27.5323C10.8381 27.7918 11.2707 27.9156 11.7392 27.9156C12.5687 27.9156 13.0494 27.5139 13.0494 26.9516C13.0494 26.4324 12.6711 26.1609 12.046 26.0682L11.7516 26.0243C11.4812 25.9883 11.2646 25.9324 11.2646 25.7344C11.2646 25.5185 11.4688 25.3886 11.8115 25.3886C12.1781 25.3886 12.533 25.5307 12.7069 25.6417L12.9773 25.1226L12.9763 25.1219ZM21.0352 24.8134C20.6749 24.8134 20.4402 24.9867 20.2787 25.2462V24.887H19.6597V27.8404H20.2843V26.1848C20.2843 25.6961 20.4885 25.4245 20.8968 25.4245C21.0305 25.4226 21.1632 25.4478 21.2874 25.4989L21.4799 24.8935C21.3416 24.8375 21.1614 24.8129 21.0348 24.8129L21.0352 24.8134ZM15.7054 24.887H14.6841V23.9911H14.0527V24.887H13.4701V25.474H14.0527V26.8213C14.0527 27.5065 14.3113 27.9147 15.0502 27.9147C15.3213 27.9147 15.6335 27.8283 15.8316 27.6863L15.6512 27.1364C15.4648 27.2474 15.2605 27.3034 15.0982 27.3034C14.7859 27.3034 14.6841 27.1054 14.6841 26.8091V25.4746H15.7054V24.887ZM6.36758 27.8411V25.9876C6.36758 25.2896 5.93498 24.8199 5.2376 24.8136C4.87098 24.8073 4.4928 24.9246 4.22802 25.3391C4.02993 25.0116 3.71773 24.8136 3.27883 24.8136C2.97205 24.8136 2.67228 24.9063 2.4376 25.2522V24.887H1.8125V27.8404H2.4425V26.2028C2.4425 25.6901 2.719 25.4177 3.146 25.4177C3.56075 25.4177 3.77058 25.6957 3.77058 26.1963V27.84H4.40197V26.2025C4.40197 25.6898 4.6902 25.4173 5.10478 25.4173C5.53125 25.4173 5.73478 25.6954 5.73478 26.196V27.8396L6.36758 27.8411Z" fill="#231F20"/>
<path d="M22.2356 19.8689H12.7705V2.37793H22.2357L22.2356 19.8689Z" fill="#FF5F00"/>
<path d="M13.37 11.1234C13.37 7.57536 14.9856 4.41474 17.5014 2.3779C15.5971 0.83385 13.2417 -0.0041608 10.8166 -0.000476182C4.8426 -0.000476182 0 4.97978 0 11.1234C0 17.267 4.8426 22.2473 10.8166 22.2473C13.2418 22.251 15.5972 21.413 17.5016 19.8689C14.986 17.8324 13.37 14.6716 13.37 11.1234Z" fill="#EB001B"/>
<path d="M35.0044 11.1239C35.0044 17.2675 30.1618 22.2478 24.1878 22.2478C21.7624 22.2514 19.4067 21.4134 17.502 19.8694C20.0185 17.8326 21.6341 14.6721 21.6341 11.1239C21.6341 7.57567 20.0185 4.41523 17.502 2.37839C19.4066 0.834385 21.7623 -0.00360793 24.1877 1.16768e-05C30.1616 1.16768e-05 35.0042 4.98027 35.0042 11.1239" fill="#F79E1B"/>
</svg>
