<svg width="30" height="17" viewBox="0 0 30 17" fill="none" xmlns="http://www.w3.org/2000/svg">
<path d="M3.00016 13.6663H27.0002C27.7335 13.6663 28.3335 14.2663 28.3335 14.9996C28.3335 15.7329 27.7335 16.3329 27.0002 16.3329H3.00016C2.26683 16.3329 1.66683 15.7329 1.66683 14.9996C1.66683 14.2663 2.26683 13.6663 3.00016 13.6663ZM2.3335 7.75959C2.8135 8.03959 3.42683 7.86626 3.70683 7.38626L4.3335 6.29293L4.9735 7.39959C5.2535 7.87959 5.86683 8.03959 6.34683 7.77293C6.82683 7.49293 6.98683 6.89293 6.72016 6.41293L6.06683 5.29293H7.3335C7.88016 5.29293 8.3335 4.83959 8.3335 4.29293C8.3335 3.74626 7.88016 3.29293 7.3335 3.29293H6.06683L6.6935 2.19959C6.9735 1.71959 6.8135 1.10626 6.3335 0.826258C5.8535 0.559591 5.24016 0.719592 4.96016 1.19959L4.3335 2.29293L3.70683 1.19959C3.42683 0.719592 2.8135 0.559591 2.3335 0.826258C1.8535 1.10626 1.6935 1.71959 1.9735 2.19959L2.60016 3.29293H1.3335C0.786829 3.29293 0.333496 3.74626 0.333496 4.29293C0.333496 4.83959 0.786829 5.29293 1.3335 5.29293H2.60016L1.96016 6.39959C1.6935 6.87959 1.8535 7.49293 2.3335 7.75959ZM13.0002 7.75959C13.4802 8.03959 14.0935 7.86626 14.3735 7.38626L15.0002 6.29293L15.6402 7.39959C15.9202 7.87959 16.5335 8.03959 17.0135 7.77293C17.4935 7.49293 17.6535 6.89293 17.3868 6.41293L16.7468 5.30626H18.0135C18.5602 5.30626 19.0135 4.85292 19.0135 4.30626C19.0135 3.75959 18.5602 3.30626 18.0135 3.30626H16.7335L17.3602 2.21292C17.6402 1.73292 17.4668 1.11959 17.0002 0.839592C16.5202 0.559592 15.9068 0.732925 15.6402 1.19959L15.0002 2.29293L14.3735 1.19959C14.0935 0.719592 13.4802 0.559592 13.0135 0.839592C12.5335 1.11959 12.3735 1.73292 12.6535 2.21292L13.2802 3.30626H12.0002C11.4535 3.29292 11.0002 3.74626 11.0002 4.29293C11.0002 4.83959 11.4535 5.29293 12.0002 5.29293H13.2668L12.6268 6.39959C12.3602 6.87959 12.5202 7.49293 13.0002 7.75959ZM29.6668 4.29293C29.6668 3.74626 29.2135 3.29293 28.6668 3.29293H27.4002L28.0268 2.19959C28.3068 1.71959 28.1335 1.10626 27.6668 0.826258C27.1868 0.546258 26.5735 0.719591 26.3068 1.18626L25.6668 2.29293L25.0402 1.19959C24.7602 0.719592 24.1468 0.559592 23.6802 0.839592C23.2002 1.11959 23.0402 1.73292 23.3202 2.21292L23.9468 3.30626H22.6802C22.1202 3.29292 21.6668 3.74626 21.6668 4.29293C21.6668 4.83959 22.1202 5.29293 22.6668 5.29293H23.9335L23.2935 6.39959C23.0135 6.87959 23.1868 7.49293 23.6668 7.75959C24.1468 8.03959 24.7602 7.86626 25.0402 7.38626L25.6668 6.29293L26.3068 7.39959C26.5868 7.87959 27.2002 8.03959 27.6802 7.77293C28.1602 7.49293 28.3202 6.89293 28.0535 6.41293L27.4135 5.30626H28.6802C29.2135 5.29292 29.6668 4.83959 29.6668 4.29293Z" fill="#948CFC"/>
</svg>
