<svg width="32" height="32" viewBox="0 0 32 32" fill="none" xmlns="http://www.w3.org/2000/svg">
<path d="M16 2.66666C8.63996 2.66666 2.66663 8.63999 2.66663 16C2.66663 23.36 8.63996 29.3333 16 29.3333C23.36 29.3333 29.3333 23.36 29.3333 16C29.3333 8.63999 23.36 2.66666 16 2.66666ZM16 26.6667C10.1066 26.6667 5.33329 21.8933 5.33329 16C5.33329 10.1067 10.1066 5.33332 16 5.33332C21.8933 5.33332 26.6666 10.1067 26.6666 16C26.6666 21.8933 21.8933 26.6667 16 26.6667Z" fill="white"/>
<path d="M9.33325 18C10.4378 18 11.3333 17.1046 11.3333 16C11.3333 14.8954 10.4378 14 9.33325 14C8.22868 14 7.33325 14.8954 7.33325 16C7.33325 17.1046 8.22868 18 9.33325 18Z" fill="white"/>
<path d="M16 18C17.1046 18 18 17.1046 18 16C18 14.8954 17.1046 14 16 14C14.8954 14 14 14.8954 14 16C14 17.1046 14.8954 18 16 18Z" fill="white"/>
<path d="M22.6666 18C23.7712 18 24.6666 17.1046 24.6666 16C24.6666 14.8954 23.7712 14 22.6666 14C21.5621 14 20.6666 14.8954 20.6666 16C20.6666 17.1046 21.5621 18 22.6666 18Z" fill="white"/>
</svg>
