<svg width="32" height="32" viewBox="0 0 32 32" fill="none" xmlns="http://www.w3.org/2000/svg">
<path d="M24 4.00001H19.76C19.2 2.45334 17.7334 1.33334 16 1.33334C14.2667 1.33334 12.8 2.45334 12.24 4.00001H8.00004C6.53337 4.00001 5.33337 5.20001 5.33337 6.66668V26.6667C5.33337 28.1333 6.53337 29.3333 8.00004 29.3333H16.1467C15.36 28.5733 14.72 27.6667 14.2534 26.6667H8.00004V6.66668H10.6667V8.00001C10.6667 9.46668 11.8667 10.6667 13.3334 10.6667H18.6667C20.1334 10.6667 21.3334 9.46668 21.3334 8.00001V6.66668H24V13.44C24.9467 13.5733 25.84 13.8533 26.6667 14.24V6.66668C26.6667 5.20001 25.4667 4.00001 24 4.00001ZM16 6.66668C15.2667 6.66668 14.6667 6.06668 14.6667 5.33334C14.6667 4.60001 15.2667 4.00001 16 4.00001C16.7334 4.00001 17.3334 4.60001 17.3334 5.33334C17.3334 6.06668 16.7334 6.66668 16 6.66668ZM22.6667 16C18.9867 16 16 18.9867 16 22.6667C16 26.3467 18.9867 29.3333 22.6667 29.3333C26.3467 29.3333 29.3334 26.3467 29.3334 22.6667C29.3334 18.9867 26.3467 16 22.6667 16ZM24.3867 25.3333L22.1867 23.1333C22.0667 23.0133 21.9867 22.84 21.9867 22.6667V19.3467C21.9867 18.9733 22.28 18.68 22.6534 18.68C23.0267 18.68 23.32 18.9733 23.32 19.3467V22.4L25.32 24.4C25.5867 24.6667 25.5867 25.08 25.32 25.3467C25.0667 25.6 24.6534 25.6 24.3867 25.3333Z" fill="white"/>
</svg>
