<svg width="28" height="28" viewBox="0 0 28 28" fill="none" xmlns="http://www.w3.org/2000/svg">
<path d="M13.9998 0.666992C6.63984 0.666992 0.666504 6.64033 0.666504 14.0003C0.666504 21.3603 6.63984 27.3337 13.9998 27.3337C21.3598 27.3337 27.3332 21.3603 27.3332 14.0003C27.3332 6.64033 21.3598 0.666992 13.9998 0.666992ZM13.9998 4.66699C16.2132 4.66699 17.9998 6.45366 17.9998 8.66699C17.9998 10.8803 16.2132 12.667 13.9998 12.667C11.7865 12.667 9.99984 10.8803 9.99984 8.66699C9.99984 6.45366 11.7865 4.66699 13.9998 4.66699ZM13.9998 23.6003C10.6665 23.6003 7.71984 21.8937 5.99984 19.307C6.03984 16.6537 11.3332 15.2003 13.9998 15.2003C16.6532 15.2003 21.9598 16.6537 21.9998 19.307C20.2798 21.8937 17.3332 23.6003 13.9998 23.6003Z" fill="#948CFC"/>
</svg>
