<svg width="32" height="32" viewBox="0 0 32 32" fill="none" xmlns="http://www.w3.org/2000/svg">
<path d="M7.99992 26.6666V13.3333H23.9999V14.6666C24.9333 14.6666 25.8266 14.7999 26.6666 15.0533V13.3333C26.6666 11.8666 25.4666 10.6666 23.9999 10.6666H22.6666V7.99992C22.6666 4.31992 19.6799 1.33325 15.9999 1.33325C12.3199 1.33325 9.33325 4.31992 9.33325 7.99992V10.6666H7.99992C6.53325 10.6666 5.33325 11.8666 5.33325 13.3333V26.6666C5.33325 28.1333 6.53325 29.3333 7.99992 29.3333H16.3466C15.7866 28.5333 15.3466 27.6266 15.0533 26.6666H7.99992ZM11.9999 7.99992C11.9999 5.78659 13.7866 3.99992 15.9999 3.99992C18.2133 3.99992 19.9999 5.78659 19.9999 7.99992V10.6666H11.9999V7.99992Z" fill="#948CFC"/>
<path d="M23.9999 17.3333C20.3199 17.3333 17.3333 20.3199 17.3333 23.9999C17.3333 27.6799 20.3199 30.6666 23.9999 30.6666C27.6799 30.6666 30.6666 27.6799 30.6666 23.9999C30.6666 20.3199 27.6799 17.3333 23.9999 17.3333ZM26.1999 27.1333L23.3333 24.2666V19.9999H24.6666V23.7199L27.1333 26.1866L26.1999 27.1333Z" fill="#948CFC"/>
</svg>
