<svg width="38" height="22" viewBox="0 0 38 22" fill="none" xmlns="http://www.w3.org/2000/svg">
<path d="M27.8331 1.50015C27.1831 0.85015 26.1331 0.85015 25.4831 1.50015L16.0831 10.9002L18.4331 13.2502L27.8331 3.83348C28.4664 3.20015 28.4664 2.13348 27.8331 1.50015ZM34.8997 1.48348L18.4331 17.9502L12.6331 12.1668C11.9831 11.5168 10.9331 11.5168 10.2831 12.1668C9.63307 12.8168 9.63307 13.8668 10.2831 14.5168L17.2497 21.4835C17.8997 22.1335 18.9497 22.1335 19.5997 21.4835L37.2497 3.85015C37.8997 3.20015 37.8997 2.15015 37.2497 1.50015H37.2331C36.5997 0.833484 35.5497 0.833483 34.8997 1.48348ZM0.866406 14.5335L7.83307 21.5002C8.48307 22.1502 9.53307 22.1502 10.1831 21.5002L11.3497 20.3335L3.21641 12.1668C2.56641 11.5168 1.51641 11.5168 0.866406 12.1668C0.216406 12.8168 0.216406 13.8835 0.866406 14.5335Z" fill="#2ECC71"/>
</svg>
