<svg width="45" height="45" viewBox="0 0 45 45" fill="none" xmlns="http://www.w3.org/2000/svg">
<path d="M38.325 13.125H39.375C39.8723 13.125 40.3492 12.9275 40.7008 12.5758C41.0525 12.2242 41.25 11.7473 41.25 11.25C41.25 10.7527 41.0525 10.2758 40.7008 9.92418C40.3492 9.57254 39.8723 9.375 39.375 9.375H34.5188C30.5625 9.375 31.6688 5.625 24.375 5.625V3.75C24.375 3.25272 24.1775 2.77581 23.8258 2.42417C23.4742 2.07254 22.9973 1.875 22.5 1.875C22.0027 1.875 21.5258 2.07254 21.1742 2.42417C20.8226 2.77581 20.625 3.25272 20.625 3.75V5.625C13.8375 5.625 14.1938 9.375 10.6125 9.375H5.62502C5.12773 9.375 4.65082 9.57254 4.29919 9.92418C3.94756 10.2758 3.75002 10.7527 3.75002 11.25C3.75002 11.7473 3.94756 12.2242 4.29919 12.5758C4.65082 12.9275 5.12773 13.125 5.62502 13.125H6.67502C1.21877 27.675 1.87502 25.1625 1.87502 28.125C1.87502 30.1141 2.66519 32.0218 4.07172 33.4283C5.47824 34.8348 7.38589 35.625 9.37501 35.625C11.3641 35.625 13.2718 34.8348 14.6783 33.4283C16.0848 32.0218 16.875 30.1141 16.875 28.125C16.875 25.1625 17.55 27.7125 12.0188 12.975C16.2938 12.225 16.3313 9.375 19.5188 9.375H20.625V39.375H15C14.5027 39.375 14.0258 39.5725 13.6742 39.9242C13.3226 40.2758 13.125 40.7527 13.125 41.25C13.125 41.7473 13.3226 42.2242 13.6742 42.5758C14.0258 42.9275 14.5027 43.125 15 43.125H30C30.4973 43.125 30.9742 42.9275 31.3258 42.5758C31.6775 42.2242 31.875 41.7473 31.875 41.25C31.875 40.7527 31.6775 40.2758 31.3258 39.9242C30.9742 39.5725 30.4973 39.375 30 39.375H24.375V9.375H25.4813C28.875 9.375 28.6125 12.15 32.9813 12.975C27.3938 27.8438 28.125 25.1625 28.125 28.125C28.125 30.1141 28.9152 32.0218 30.3217 33.4283C31.7282 34.8348 33.6359 35.625 35.625 35.625C37.6141 35.625 39.5218 34.8348 40.9283 33.4283C42.3348 32.0218 43.125 30.1141 43.125 28.125C43.125 25.1625 43.8 27.6938 38.325 13.125ZM9.37501 31.875C8.38045 31.875 7.42663 31.4799 6.72336 30.7766C6.0201 30.0734 5.62502 29.1196 5.62502 28.125H13.125C13.125 29.1196 12.7299 30.0734 12.0267 30.7766C11.3234 31.4799 10.3696 31.875 9.37501 31.875ZM6.45002 24.375L9.37501 16.5938L12.3 24.375H6.45002ZM35.625 16.5938L38.55 24.375H32.7L35.625 16.5938ZM35.625 31.875C34.6305 31.875 33.6766 31.4799 32.9734 30.7766C32.2701 30.0734 31.875 29.1196 31.875 28.125H39.375C39.375 29.1196 38.9799 30.0734 38.2767 30.7766C37.5734 31.4799 36.6196 31.875 35.625 31.875Z" fill="#948CFC"/>
</svg>
