<svg width="22" height="28" viewBox="0 0 22 28" fill="none" xmlns="http://www.w3.org/2000/svg">
<path d="M20.88 7.88008L14.44 1.44008C13.9467 0.946748 13.2667 0.666748 12.56 0.666748H3C1.53333 0.666748 0.346666 1.86675 0.346666 3.33341L0.333332 24.6667C0.333332 26.1334 1.52 27.3334 2.98667 27.3334H19C20.4667 27.3334 21.6667 26.1334 21.6667 24.6667V9.77341C21.6667 9.06675 21.3867 8.38675 20.88 7.88008ZM8.64 21.0534L5.81333 18.2267C5.29333 17.7067 5.29333 16.8667 5.81333 16.3467C6.33333 15.8267 7.17333 15.8267 7.69333 16.3467L9.57333 18.2267L14.2933 13.5067C14.8133 12.9867 15.6533 12.9867 16.1733 13.5067C16.6933 14.0267 16.6933 14.8667 16.1733 15.3867L10.52 21.0401C10.0133 21.5734 9.16 21.5734 8.64 21.0534ZM13.6667 10.0001C12.9333 10.0001 12.3333 9.40008 12.3333 8.66675V2.66675L19.6667 10.0001H13.6667Z" fill="#948CFC"/>
</svg>
