<svg width="32" height="32" viewBox="0 0 32 32" fill="none" xmlns="http://www.w3.org/2000/svg">
<path d="M26.6665 5.33301H5.33317C3.8665 5.33301 2.6665 6.53301 2.6665 7.99967V23.9997C2.6665 25.4663 3.8665 26.6663 5.33317 26.6663H26.6665C28.1332 26.6663 29.3332 25.4663 29.3332 23.9997V7.99967C29.3332 6.53301 28.1332 5.33301 26.6665 5.33301ZM26.6665 23.9997H5.33317V7.99967H26.6665V23.9997Z" fill="#948CFC"/>
<path d="M8.65302 14V20H10.1864V12H9.02635L6.67969 13.6933L7.45302 14.88L8.65302 14Z" fill="#948CFC"/>
<path d="M15.2932 13.3999C15.9599 13.3999 16.3732 13.8265 16.3732 14.3599C16.3732 14.8532 16.1866 15.2132 15.6532 15.7732C15.1732 16.2799 14.2399 17.2132 12.8132 18.6399V19.9999H17.9999V18.6799H14.8399L14.7999 18.6132C15.7066 17.7065 16.3332 17.0932 16.6666 16.7599C17.4799 15.9599 17.8932 15.1332 17.8932 14.2799C17.8932 13.9599 17.8266 12.8932 16.6799 12.3065C16.0532 11.9999 14.9999 11.8265 14.0799 12.2665C12.9866 12.7865 12.7599 13.7732 12.7466 13.7999L14.0932 14.3599C14.2266 13.9199 14.5999 13.3999 15.2932 13.3999Z" fill="#948CFC"/>
<path d="M22.6533 18.5867C21.5466 18.5867 21.3333 17.5733 21.2933 17.44L19.9199 17.9867C20.5199 20.1067 22.5999 20 22.6533 20C24.2533 20 24.8933 19.04 24.9999 18.8667C25.4266 18.2133 25.4799 17.2133 24.9866 16.52C24.7599 16.2 24.4533 15.9733 24.0799 15.8267V15.7333C24.3466 15.6 24.5733 15.3867 24.7733 15.0933C25.1199 14.5467 25.1866 13.6667 24.7466 13C24.6399 12.8533 24.0399 12 22.5866 12C20.9066 12 20.2666 13.2 20.1199 13.6533L21.4399 14.2C21.5866 13.7733 21.9066 13.3467 22.5733 13.3467C23.1599 13.3467 23.5733 13.6933 23.5733 14.2133C23.5733 14.9867 22.8399 15.1733 22.3999 15.1733H21.7866V16.5067H22.4533C23.1999 16.5067 23.8399 16.8267 23.8399 17.56C23.8399 18.2133 23.1999 18.5867 22.6533 18.5867Z" fill="#948CFC"/>
</svg>
