<svg width="36" height="28" viewBox="0 0 36 28" fill="none" xmlns="http://www.w3.org/2000/svg">
<path d="M20.3333 7.33317C20.3333 3.64984 17.3499 0.666504 13.6666 0.666504C9.98325 0.666504 6.99992 3.64984 6.99992 7.33317C6.99992 11.0165 9.98325 13.9998 13.6666 13.9998C17.3499 13.9998 20.3333 11.0165 20.3333 7.33317ZM0.333252 23.9998V25.6665C0.333252 26.5832 1.08325 27.3332 1.99992 27.3332H25.3333C26.2499 27.3332 26.9999 26.5832 26.9999 25.6665V23.9998C26.9999 19.5665 18.1166 17.3332 13.6666 17.3332C9.21659 17.3332 0.333252 19.5665 0.333252 23.9998ZM26.9999 10.6665H33.6666C34.5833 10.6665 35.3333 11.4165 35.3333 12.3332C35.3333 13.2498 34.5833 13.9998 33.6666 13.9998H26.9999C26.0833 13.9998 25.3333 13.2498 25.3333 12.3332C25.3333 11.4165 26.0833 10.6665 26.9999 10.6665Z" fill="#2ECC71"/>
</svg>
