<?xml version="1.0" encoding="UTF-8"?>
<svg xmlns="http://www.w3.org/2000/svg" xmlns:xlink="http://www.w3.org/1999/xlink" width="35px" height="28px" viewBox="0 0 35 28" version="1.1">
<g id="surface1">
<rect x="0" y="0" width="35" height="28" style="fill:rgb(100%,100%,100%);fill-opacity:1;stroke:none;"/>
<path style=" stroke:none;fill-rule:nonzero;fill:rgb(81.960784%,1.568627%,16.078431%);fill-opacity:1;" d="M 9.710938 3.910156 L 16.097656 3.910156 C 16.992188 3.910156 17.546875 4.828125 17.339844 5.949219 L 14.363281 22.050781 C 14.152344 23.171875 13.257812 24.09375 12.367188 24.09375 L 5.976562 24.09375 C 5.085938 24.09375 4.527344 23.171875 4.738281 22.050781 L 7.714844 5.949219 C 7.921875 4.820312 8.8125 3.910156 9.707031 3.910156 Z M 9.710938 3.910156 "/>
<path style=" stroke:none;fill-rule:nonzero;fill:rgb(0.784314%,18.039216%,39.215686%);fill-opacity:1;" d="M 15.539062 3.910156 L 22.890625 3.910156 C 23.785156 3.910156 23.378906 4.828125 23.171875 5.949219 L 20.195312 22.050781 C 19.984375 23.171875 20.050781 24.09375 19.160156 24.09375 L 11.808594 24.09375 C 10.910156 24.09375 10.359375 23.171875 10.574219 22.050781 L 13.550781 5.949219 C 13.757812 4.820312 14.648438 3.910156 15.546875 3.910156 Z M 15.539062 3.910156 "/>
<path style=" stroke:none;fill-rule:nonzero;fill:rgb(2.745098%,43.529412%,45.490196%);fill-opacity:1;" d="M 22.632812 3.910156 L 29.023438 3.910156 C 29.914062 3.910156 30.472656 4.828125 30.261719 5.949219 L 27.285156 22.050781 C 27.078125 23.171875 26.179688 24.09375 25.289062 24.09375 L 18.902344 24.09375 C 18.003906 24.09375 17.453125 23.171875 17.660156 22.050781 L 20.636719 5.949219 C 20.847656 4.820312 21.738281 3.910156 22.628906 3.910156 Z M 22.632812 3.910156 "/>
<path style=" stroke:none;fill-rule:nonzero;fill:rgb(99.607843%,99.607843%,99.607843%);fill-opacity:1;" d="M 21.5625 19.085938 L 22.164062 19.085938 L 22.335938 18.355469 L 21.738281 18.355469 Z M 22.042969 17.070312 L 21.835938 17.9375 C 21.835938 17.9375 22.0625 17.792969 22.1875 17.746094 C 22.3125 17.710938 22.5 17.679688 22.5 17.679688 L 22.644531 17.078125 L 22.039062 17.078125 Z M 22.34375 15.832031 L 22.144531 16.664062 C 22.144531 16.664062 22.367188 16.535156 22.496094 16.492188 C 22.621094 16.453125 22.804688 16.441406 22.804688 16.441406 L 22.949219 15.835938 L 22.351562 15.835938 Z M 23.679688 15.832031 L 22.898438 19.078125 L 23.105469 19.078125 L 22.945312 19.753906 L 22.734375 19.753906 L 22.683594 19.957031 L 21.941406 19.957031 L 21.992188 19.753906 L 20.488281 19.753906 L 20.636719 19.132812 L 20.789062 19.132812 L 21.578125 15.832031 L 21.738281 15.164062 L 22.496094 15.164062 L 22.414062 15.5 C 22.414062 15.5 22.613281 15.316406 22.808594 15.253906 C 23 15.1875 24.097656 15.164062 24.097656 15.164062 L 23.933594 15.824219 L 23.671875 15.824219 Z M 23.679688 15.832031 "/>
<path style=" stroke:none;fill-rule:nonzero;fill:rgb(99.607843%,99.607843%,99.607843%);fill-opacity:1;" d="M 23.988281 15.164062 L 24.796875 15.164062 L 24.804688 15.542969 C 24.800781 15.609375 24.84375 15.636719 24.941406 15.636719 L 25.101562 15.636719 L 24.953125 16.265625 L 24.515625 16.265625 C 24.140625 16.300781 23.996094 16.09375 24.007812 15.867188 L 23.992188 15.171875 Z M 24.085938 18.144531 L 23.316406 18.144531 L 23.445312 17.585938 L 24.328125 17.585938 L 24.453125 17.078125 L 23.585938 17.078125 L 23.734375 16.453125 L 26.148438 16.453125 L 26 17.078125 L 25.1875 17.078125 L 25.0625 17.585938 L 25.875 17.585938 L 25.742188 18.144531 L 24.863281 18.144531 L 24.703125 18.378906 L 25.0625 18.378906 L 25.152344 19.078125 C 25.160156 19.148438 25.160156 19.195312 25.179688 19.226562 C 25.195312 19.25 25.304688 19.261719 25.363281 19.261719 L 25.472656 19.261719 L 25.304688 19.945312 L 25.03125 19.945312 C 24.988281 19.945312 24.921875 19.941406 24.835938 19.941406 C 24.75 19.929688 24.695312 19.871094 24.640625 19.835938 C 24.589844 19.804688 24.515625 19.730469 24.496094 19.59375 L 24.414062 18.890625 L 24.011719 19.582031 C 23.886719 19.800781 23.714844 19.96875 23.421875 19.96875 L 22.867188 19.96875 L 23.015625 19.359375 L 23.226562 19.359375 C 23.289062 19.359375 23.34375 19.332031 23.386719 19.300781 C 23.429688 19.277344 23.464844 19.253906 23.503906 19.179688 Z M 15.65625 16.621094 L 17.695312 16.621094 L 17.546875 17.234375 L 16.734375 17.234375 L 16.609375 17.753906 L 17.445312 17.753906 L 17.289062 18.386719 L 16.460938 18.386719 L 16.253906 19.234375 C 16.230469 19.328125 16.453125 19.339844 16.535156 19.339844 L 16.953125 19.269531 L 16.785156 19.972656 L 15.847656 19.972656 C 15.773438 19.972656 15.714844 19.960938 15.632812 19.9375 C 15.554688 19.914062 15.515625 19.867188 15.484375 19.804688 C 15.453125 19.734375 15.394531 19.679688 15.433594 19.527344 L 15.703125 18.40625 L 15.238281 18.40625 L 15.390625 17.761719 L 15.855469 17.761719 L 15.980469 17.242188 L 15.515625 17.242188 L 15.664062 16.625 Z M 17.0625 15.507812 L 17.898438 15.507812 L 17.746094 16.148438 L 16.605469 16.148438 L 16.480469 16.28125 C 16.421875 16.347656 16.410156 16.324219 16.339844 16.371094 C 16.273438 16.410156 16.140625 16.492188 15.964844 16.492188 L 15.597656 16.492188 L 15.746094 15.878906 L 15.855469 15.878906 C 15.949219 15.878906 16.015625 15.867188 16.046875 15.84375 C 16.085938 15.8125 16.125 15.75 16.167969 15.644531 L 16.378906 15.164062 L 17.207031 15.164062 L 17.0625 15.515625 Z M 18.640625 16.5625 C 18.640625 16.5625 18.867188 16.300781 19.257812 16.21875 C 19.34375 16.195312 19.902344 16.207031 19.902344 16.207031 L 19.988281 15.855469 L 18.8125 15.855469 L 18.640625 16.570312 Z M 19.746094 16.832031 L 18.578125 16.832031 L 18.507812 17.128906 L 19.523438 17.128906 C 19.644531 17.113281 19.664062 17.136719 19.675781 17.125 L 19.75 16.832031 Z M 18.230469 15.171875 L 18.941406 15.171875 L 18.839844 15.621094 C 18.839844 15.621094 19.0625 15.390625 19.21875 15.308594 C 19.378906 15.242188 19.730469 15.171875 19.730469 15.171875 L 20.882812 15.164062 L 20.488281 16.816406 C 20.421875 17.09375 20.34375 17.277344 20.296875 17.363281 C 20.253906 17.445312 20.203125 17.523438 20.101562 17.59375 C 20.003906 17.65625 19.917969 17.699219 19.832031 17.703125 C 19.757812 17.710938 19.636719 17.714844 19.480469 17.714844 L 18.371094 17.714844 L 18.058594 19.019531 C 18.03125 19.148438 18.015625 19.214844 18.035156 19.25 C 18.050781 19.277344 18.09375 19.3125 18.144531 19.3125 L 18.628906 19.253906 L 18.464844 19.96875 L 17.914062 19.96875 C 17.738281 19.96875 17.613281 19.960938 17.523438 19.957031 C 17.441406 19.945312 17.351562 19.957031 17.292969 19.898438 C 17.242188 19.839844 17.164062 19.765625 17.167969 19.6875 C 17.171875 19.617188 17.195312 19.5 17.234375 19.335938 Z M 18.230469 15.171875 "/>
<path style=" stroke:none;fill-rule:nonzero;fill:rgb(99.607843%,99.607843%,99.607843%);fill-opacity:1;" d="M 20.300781 17.796875 L 20.234375 18.195312 C 20.207031 18.316406 20.183594 18.410156 20.109375 18.492188 C 20.03125 18.574219 19.945312 18.664062 19.730469 18.664062 L 19.335938 18.6875 L 19.332031 19.128906 C 19.328125 19.253906 19.355469 19.242188 19.367188 19.265625 C 19.386719 19.289062 19.402344 19.292969 19.417969 19.304688 L 19.542969 19.292969 L 19.921875 19.269531 L 19.761719 19.925781 L 19.332031 19.925781 C 19.027344 19.925781 18.800781 19.914062 18.730469 19.84375 C 18.65625 19.785156 18.648438 19.714844 18.648438 19.585938 L 18.675781 17.84375 L 19.367188 17.84375 L 19.359375 18.199219 L 19.527344 18.199219 C 19.582031 18.199219 19.625 18.195312 19.648438 18.175781 C 19.667969 18.160156 19.683594 18.128906 19.691406 18.089844 L 19.761719 17.808594 L 20.304688 17.808594 Z M 10.457031 9.058594 C 10.433594 9.199219 9.988281 11.78125 9.988281 11.78125 C 9.890625 12.300781 9.820312 12.675781 9.589844 12.917969 C 9.453125 13.058594 9.296875 13.121094 9.117188 13.121094 C 8.824219 13.121094 8.65625 12.941406 8.628906 12.59375 L 8.625 12.476562 C 8.625 12.476562 8.710938 11.78125 8.710938 11.777344 C 8.710938 11.777344 9.175781 9.421875 9.261719 9.113281 C 9.265625 9.09375 9.265625 9.082031 9.265625 9.078125 C 8.359375 9.089844 8.195312 9.078125 8.1875 9.058594 C 8.183594 9.082031 8.160156 9.230469 8.160156 9.230469 L 7.6875 11.882812 L 7.644531 12.101562 L 7.566406 12.839844 C 7.566406 13.058594 7.597656 13.238281 7.667969 13.386719 C 7.886719 13.863281 8.503906 13.933594 8.851562 13.933594 C 9.300781 13.933594 9.722656 13.8125 10.007812 13.59375 C 10.503906 13.226562 10.632812 12.648438 10.746094 12.136719 L 10.800781 11.875 C 10.800781 11.875 11.28125 9.433594 11.363281 9.117188 C 11.367188 9.101562 11.367188 9.089844 11.371094 9.082031 C 10.714844 9.089844 10.523438 9.082031 10.457031 9.066406 Z M 13.105469 13.910156 C 12.785156 13.90625 12.671875 13.90625 12.292969 13.929688 L 12.28125 13.894531 C 12.3125 13.710938 12.351562 13.535156 12.378906 13.355469 L 12.425781 13.109375 C 12.492188 12.730469 12.558594 12.277344 12.566406 12.144531 C 12.578125 12.0625 12.597656 11.855469 12.410156 11.855469 C 12.332031 11.855469 12.253906 11.902344 12.167969 11.949219 C 12.121094 12.15625 12.035156 12.730469 11.988281 12.988281 C 11.894531 13.535156 11.890625 13.601562 11.847656 13.871094 L 11.820312 13.90625 C 11.492188 13.898438 11.375 13.898438 10.992188 13.921875 L 10.976562 13.882812 C 11.039062 13.554688 11.101562 13.226562 11.160156 12.898438 C 11.320312 12.015625 11.359375 11.675781 11.402344 11.226562 L 11.433594 11.203125 C 11.804688 11.136719 11.894531 11.121094 12.296875 11.019531 L 12.332031 11.066406 L 12.269531 11.347656 C 12.339844 11.296875 12.40625 11.242188 12.476562 11.203125 C 12.664062 11.085938 12.875 11.050781 12.992188 11.050781 C 13.167969 11.050781 13.363281 11.113281 13.441406 11.371094 C 13.515625 11.597656 13.46875 11.878906 13.367188 12.4375 L 13.316406 12.71875 C 13.214844 13.335938 13.195312 13.449219 13.140625 13.871094 L 13.101562 13.90625 Z M 14.410156 13.914062 C 14.214844 13.914062 14.089844 13.90625 13.96875 13.914062 C 13.847656 13.914062 13.734375 13.925781 13.550781 13.929688 L 13.53125 13.890625 C 13.582031 13.65625 13.605469 13.574219 13.636719 13.492188 C 13.660156 13.410156 13.679688 13.328125 13.726562 13.085938 C 13.785156 12.777344 13.820312 12.5625 13.84375 12.367188 C 13.871094 12.1875 13.886719 12.027344 13.90625 11.847656 L 13.917969 11.835938 L 13.933594 11.816406 C 14.128906 11.78125 14.246094 11.757812 14.375 11.734375 C 14.5 11.710938 14.628906 11.683594 14.828125 11.636719 L 14.84375 11.683594 L 14.730469 12.261719 C 14.695312 12.457031 14.65625 12.648438 14.625 12.84375 C 14.554688 13.25 14.523438 13.402344 14.507812 13.515625 C 14.488281 13.621094 14.484375 13.671875 14.457031 13.882812 L 14.4375 13.902344 L 14.417969 13.917969 Z M 16.472656 12.476562 C 16.457031 12.582031 16.382812 12.972656 16.285156 13.136719 C 16.214844 13.257812 16.136719 13.335938 16.042969 13.335938 C 16.015625 13.335938 15.859375 13.335938 15.855469 13.035156 C 15.855469 12.890625 15.878906 12.738281 15.90625 12.574219 C 15.988281 12.101562 16.089844 11.707031 16.347656 11.707031 C 16.546875 11.707031 16.558594 12 16.472656 12.476562 Z M 17.3125 12.523438 C 17.421875 11.902344 17.335938 11.609375 17.230469 11.433594 C 17.0625 11.164062 16.765625 11.078125 16.457031 11.078125 C 16.273438 11.078125 15.835938 11.101562 15.492188 11.496094 C 15.246094 11.785156 15.128906 12.175781 15.066406 12.550781 C 14.996094 12.929688 14.917969 13.617188 15.417969 13.875 C 15.570312 13.957031 15.792969 13.980469 15.9375 13.980469 C 16.304688 13.980469 16.679688 13.851562 16.964844 13.476562 C 17.183594 13.171875 17.28125 12.714844 17.316406 12.523438 Z M 25.140625 13.980469 C 24.75 13.976562 24.636719 13.976562 24.28125 14 L 24.257812 13.964844 C 24.355469 13.503906 24.453125 13.035156 24.539062 12.566406 C 24.652344 11.957031 24.679688 11.699219 24.714844 11.34375 L 24.746094 11.3125 C 25.128906 11.242188 25.238281 11.226562 25.640625 11.132812 L 25.648438 11.171875 C 25.574219 11.558594 25.507812 11.941406 25.433594 12.320312 C 25.285156 13.121094 25.230469 13.53125 25.175781 13.953125 L 25.140625 13.988281 Z M 25.140625 13.980469 "/>
<path style=" stroke:none;fill-rule:nonzero;fill:rgb(99.607843%,99.607843%,99.607843%);fill-opacity:1;" d="M 24.578125 12.554688 C 24.558594 12.652344 24.484375 13.050781 24.386719 13.214844 C 24.324219 13.332031 24.164062 13.40625 24.078125 13.40625 C 24.050781 13.40625 23.894531 13.40625 23.886719 13.113281 C 23.886719 12.96875 23.910156 12.816406 23.9375 12.652344 C 24.019531 12.191406 24.125 11.796875 24.378906 11.796875 C 24.578125 11.796875 24.667969 12.085938 24.578125 12.558594 Z M 25.34375 12.601562 C 25.457031 11.980469 25 12.546875 24.929688 12.34375 C 24.820312 12.019531 24.890625 11.375 24.445312 11.160156 C 24.273438 11.074219 23.867188 11.183594 23.523438 11.582031 C 23.28125 11.863281 23.164062 12.253906 23.097656 12.628906 C 23.027344 13.003906 22.949219 13.695312 23.445312 13.933594 C 23.601562 14.023438 23.746094 14.046875 23.890625 14.035156 C 24.394531 14 24.773438 13.042969 25.058594 12.671875 C 25.273438 12.371094 25.3125 12.78125 25.34375 12.601562 Z M 19.515625 13.910156 C 19.195312 13.90625 19.082031 13.90625 18.707031 13.929688 L 18.691406 13.894531 C 18.726562 13.710938 18.761719 13.535156 18.792969 13.355469 L 18.835938 13.109375 C 18.90625 12.730469 18.976562 12.277344 18.980469 12.144531 C 18.988281 12.0625 19.007812 11.855469 18.828125 11.855469 C 18.746094 11.855469 18.664062 11.902344 18.585938 11.949219 C 18.542969 12.15625 18.449219 12.730469 18.402344 12.984375 C 18.316406 13.535156 18.308594 13.601562 18.265625 13.871094 L 18.238281 13.90625 C 17.90625 13.898438 17.792969 13.898438 17.410156 13.921875 L 17.390625 13.882812 C 17.457031 13.554688 17.515625 13.226562 17.578125 12.898438 C 17.734375 12.015625 17.773438 11.675781 17.820312 11.226562 L 17.847656 11.203125 C 18.21875 11.136719 18.3125 11.121094 18.710938 11.019531 L 18.742188 11.066406 L 18.6875 11.347656 C 18.753906 11.296875 18.820312 11.242188 18.886719 11.203125 C 19.078125 11.085938 19.285156 11.050781 19.402344 11.050781 C 19.578125 11.050781 19.769531 11.113281 19.851562 11.371094 C 19.925781 11.597656 19.875 11.878906 19.773438 12.4375 L 19.722656 12.71875 C 19.617188 13.335938 19.601562 13.449219 19.546875 13.871094 L 19.507812 13.90625 Z M 22.296875 9.066406 L 22.027344 9.070312 C 21.332031 9.082031 21.050781 9.078125 20.941406 9.058594 C 20.929688 9.125 20.914062 9.234375 20.914062 9.234375 C 20.914062 9.234375 20.660156 10.6875 20.660156 10.691406 C 20.660156 10.691406 20.066406 13.78125 20.039062 13.929688 C 20.648438 13.917969 20.894531 13.917969 21 13.933594 C 21.023438 13.789062 21.164062 12.929688 21.167969 12.929688 C 21.167969 12.929688 21.289062 12.296875 21.292969 12.273438 C 21.292969 12.273438 21.332031 12.207031 21.367188 12.179688 L 21.421875 12.179688 C 21.949219 12.179688 22.539062 12.179688 23.003906 11.75 C 23.316406 11.460938 23.53125 11.019531 23.628906 10.492188 C 23.652344 10.363281 23.671875 10.210938 23.671875 10.054688 C 23.671875 9.851562 23.636719 9.652344 23.546875 9.492188 C 23.308594 9.078125 22.839844 9.070312 22.296875 9.066406 Z M 22.644531 10.582031 C 22.589844 10.902344 22.421875 11.179688 22.207031 11.308594 C 22.03125 11.417969 21.816406 11.429688 21.59375 11.429688 L 21.449219 11.429688 L 21.460938 11.359375 C 21.460938 11.359375 21.726562 9.910156 21.726562 9.914062 L 21.734375 9.839844 L 21.738281 9.78125 L 21.847656 9.792969 C 21.847656 9.792969 22.394531 9.851562 22.402344 9.851562 C 22.617188 9.957031 22.710938 10.222656 22.644531 10.582031 Z M 28.351562 11.066406 L 28.320312 11.019531 C 27.925781 11.121094 27.851562 11.136719 27.488281 11.203125 L 27.460938 11.238281 C 27.460938 11.242188 27.457031 11.25 27.457031 11.261719 L 27.457031 11.253906 C 27.1875 12.042969 27.191406 11.875 26.972656 12.496094 C 26.972656 12.464844 26.972656 12.449219 26.96875 12.417969 L 26.914062 11.074219 L 26.878906 11.027344 C 26.460938 11.125 26.453125 11.144531 26.074219 11.207031 L 26.042969 11.242188 C 26.039062 11.261719 26.039062 11.277344 26.039062 11.296875 L 26.042969 11.300781 C 26.089844 11.609375 26.082031 11.539062 26.128906 12.027344 C 26.152344 12.265625 26.179688 12.507812 26.203125 12.742188 C 26.238281 13.136719 26.261719 13.332031 26.308594 13.933594 C 26.050781 14.472656 25.988281 14.675781 25.738281 15.152344 L 25.753906 15.199219 C 26.128906 15.179688 26.210938 15.179688 26.492188 15.179688 L 26.550781 15.09375 C 26.761719 14.527344 28.355469 11.074219 28.355469 11.074219 Z M 14.769531 11.453125 C 14.984375 11.265625 15.011719 11.007812 14.828125 10.875 C 14.648438 10.742188 14.328125 10.78125 14.113281 10.96875 C 13.902344 11.148438 13.878906 11.40625 14.058594 11.546875 C 14.234375 11.675781 14.554688 11.640625 14.769531 11.453125 Z M 14.769531 11.453125 "/>
<path style=" stroke:none;fill-rule:nonzero;fill:rgb(99.607843%,99.607843%,99.607843%);fill-opacity:1;" d="M 26.488281 15.171875 L 26.179688 15.84375 C 26.082031 16.070312 25.894531 16.246094 25.605469 16.246094 L 25.109375 16.234375 L 25.253906 15.625 L 25.351562 15.625 C 25.402344 15.625 25.441406 15.621094 25.46875 15.601562 C 25.496094 15.59375 25.507812 15.570312 25.53125 15.535156 L 25.71875 15.164062 L 26.492188 15.164062 Z M 26.488281 15.171875 "/>
</g>
</svg>
