<svg width="24" height="24" viewBox="0 0 24 24" fill="none" xmlns="http://www.w3.org/2000/svg">
<path d="M12 2.00049C6.48 2.00049 2 6.48049 2 12.0005C2 17.5205 6.48 22.0005 12 22.0005C17.52 22.0005 22 17.5205 22 12.0005C22 6.48049 17.52 2.00049 12 2.00049ZM12 5.00049C13.66 5.00049 15 6.34049 15 8.00049C15 9.66049 13.66 11.0005 12 11.0005C10.34 11.0005 9 9.66049 9 8.00049C9 6.34049 10.34 5.00049 12 5.00049ZM12 19.2005C9.5 19.2005 7.29 17.9205 6 15.9805C6.03 13.9905 10 12.9005 12 12.9005C13.99 12.9005 17.97 13.9905 18 15.9805C16.71 17.9205 14.5 19.2005 12 19.2005Z" fill="#948CFC"/>
</svg>
