<svg width="35" height="28" viewBox="0 0 41 22" fill="none" xmlns="http://www.w3.org/2000/svg">
<path fill-rule="evenodd" clip-rule="evenodd" d="M3.73682 21.9498C11.74 18.5199 22.9697 15.4111 37.8424 18.524L37.9983 14.7517C22.3069 13.0384 11.0476 18.0361 3.73682 21.5779V21.9498Z" fill="#E7A83A"/>
<path fill-rule="evenodd" clip-rule="evenodd" d="M12.1059 12.003L15.5745 0.565906H18.6695L15.2006 12.003H12.1059ZM10.7223 0.56903L7.93827 5.41723C7.22954 6.687 6.81528 7.32836 6.61607 8.13078H6.57369C6.62299 7.11353 6.48111 5.86473 6.46773 5.1589L6.16032 0.56903H0.950512L0.896973 0.876657C2.23545 0.876657 3.02917 1.54902 3.24757 2.92431L4.26303 12.003H7.46936L13.9525 0.56903H10.7223ZM34.7906 12.003L34.7052 10.302L30.8406 10.2989L30.0502 12.0028H26.6901L32.7827 0.587545H36.907L37.9387 12.0028H34.7906V12.003ZM34.4357 5.25661C34.4014 4.41136 34.3726 3.26406 34.4301 2.56983H34.3844C34.1961 3.13757 33.387 4.84258 33.0312 5.68113L31.8797 8.18811H34.5932L34.4357 5.25661ZM21.9187 12.328C19.7336 12.328 18.2836 11.6349 17.2483 11.017L18.7226 8.76544C19.652 9.28521 20.3817 9.88508 22.0606 9.88508C22.6004 9.88508 23.1206 9.74476 23.416 9.23324C23.8465 8.48926 23.3167 8.08906 22.1076 7.40465L21.5107 7.01649C19.7185 5.79178 18.9433 4.62864 19.7869 2.59817C20.3268 1.29939 21.7507 0.314941 24.0997 0.314941C25.7198 0.314941 27.2385 1.01564 28.1234 1.70027L26.4285 3.68814C25.5649 2.98967 24.8491 2.63631 24.0299 2.63631C23.3767 2.63631 22.8806 2.88817 22.7093 3.22792C22.3869 3.8666 22.8135 4.30205 23.7553 4.88674L24.4651 5.33826C26.6411 6.71065 27.1595 8.14974 26.6141 9.49513C25.6763 11.8109 23.8399 12.328 21.9187 12.328ZM38.7853 2.33493H38.5814V1.09505H39.0519C39.3513 1.09505 39.5041 1.1999 39.5041 1.45153C39.5041 1.67595 39.366 1.76875 39.1804 1.78972L39.5277 2.33493H39.2973L38.9769 1.80489H38.7853V2.33493ZM39.0126 1.63111C39.1657 1.63111 39.3002 1.61617 39.3002 1.43637C39.3002 1.28668 39.1534 1.26861 39.0309 1.26861H38.7851V1.63111H39.0126ZM39.0066 2.81411C38.363 2.81411 37.9048 2.33203 37.9048 1.69402C37.9048 1.0201 38.4137 0.573937 39.0066 0.573937C39.594 0.573937 40.1028 1.0201 40.1028 1.69402C40.1028 2.36772 39.594 2.81411 39.0066 2.81411ZM39.0066 0.768686C38.5216 0.768686 38.1444 1.14881 38.1444 1.69402C38.1444 2.20309 38.4739 2.61936 39.0066 2.61936C39.4858 2.61936 39.8632 2.24213 39.8632 1.69402C39.8632 1.14881 39.4858 0.768686 39.0066 0.768686Z" fill="#1D5B99"/>
</svg>
