<svg width="14" height="14" viewBox="0 0 14 14" fill="none" xmlns="http://www.w3.org/2000/svg">
<path d="M8.26016 4.79989L7.00016 6.05989L5.74016 4.79989C5.48016 4.53989 5.06016 4.53989 4.80016 4.79989C4.54016 5.05989 4.54016 5.47989 4.80016 5.73989L6.06016 6.99989L4.80016 8.25989C4.54016 8.51989 4.54016 8.93989 4.80016 9.19989C5.06016 9.45989 5.48016 9.45989 5.74016 9.19989L7.00016 7.93989L8.26016 9.19989C8.52016 9.45989 8.94016 9.45989 9.20016 9.19989C9.46016 8.93989 9.46016 8.51989 9.20016 8.25989L7.94016 6.99989L9.20016 5.73989C9.46016 5.47989 9.46016 5.05989 9.20016 4.79989C8.94016 4.54655 8.5135 4.54655 8.26016 4.79989ZM7.00016 0.333221C3.3135 0.333221 0.333496 3.31322 0.333496 6.99989C0.333496 10.6866 3.3135 13.6666 7.00016 13.6666C10.6868 13.6666 13.6668 10.6866 13.6668 6.99989C13.6668 3.31322 10.6868 0.333221 7.00016 0.333221ZM7.00016 12.3332C4.06016 12.3332 1.66683 9.93989 1.66683 6.99989C1.66683 4.05989 4.06016 1.66655 7.00016 1.66655C9.94016 1.66655 12.3335 4.05989 12.3335 6.99989C12.3335 9.93989 9.94016 12.3332 7.00016 12.3332Z" fill="#221F40"/>
</svg>
