<svg width="33" height="33" viewBox="0 0 33 33" fill="none" xmlns="http://www.w3.org/2000/svg">
<path d="M31.9875 1.03662C31.0288 0.0778651 29.48 0.0778651 28.5213 1.03662L16.5 13.0333L4.47877 1.01203C3.52002 0.0532812 1.97127 0.0532812 1.01252 1.01203C0.0537695 1.97078 0.0537695 3.51953 1.01252 4.47828L13.0338 16.4995L1.01252 28.5208C0.0537695 29.4795 0.0537695 31.0283 1.01252 31.987C1.97127 32.9458 3.52002 32.9458 4.47877 31.987L16.5 19.9658L28.5213 31.987C29.48 32.9458 31.0288 32.9458 31.9875 31.987C32.9463 31.0283 32.9463 29.4795 31.9875 28.5208L19.9663 16.4995L31.9875 4.47828C32.9217 3.54412 32.9217 1.97078 31.9875 1.03662Z" fill="#C1C1C1"/>
</svg>
